<svg width="42" height="42" viewBox="0 0 42 42" fill="none" xmlns="http://www.w3.org/2000/svg">
<mask id="mask0_112_884" style="mask-type:alpha" maskUnits="userSpaceOnUse" x="0" y="0" width="42" height="42">
<rect width="42" height="42" fill="#D9D9D9"/>
</mask>
<g mask="url(#mask0_112_884)">
<path d="M13.125 38.5C11.4333 38.5 9.98958 37.9021 8.79375 36.7062C7.59792 35.5104 7 34.0667 7 32.375V9.625C7 7.93333 7.59792 6.48958 8.79375 5.29375C9.98958 4.09792 11.4333 3.5 13.125 3.5H35V29.75C34.2708 29.75 33.651 30.0052 33.1406 30.5156C32.6302 31.026 32.375 31.6458 32.375 32.375C32.375 33.1042 32.6302 33.724 33.1406 34.2344C33.651 34.7448 34.2708 35 35 35V38.5H13.125ZM10.5 26.8188C10.9083 26.6146 11.3313 26.4688 11.7688 26.3813C12.2063 26.2937 12.6583 26.25 13.125 26.25H14V7H13.125C12.3958 7 11.776 7.25521 11.2656 7.76562C10.7552 8.27604 10.5 8.89583 10.5 9.625V26.8188ZM17.5 26.25H31.5V7H17.5V26.25ZM13.125 35H29.4438C29.2687 34.5917 29.1302 34.176 29.0281 33.7531C28.926 33.3302 28.875 32.8708 28.875 32.375C28.875 31.9083 28.9187 31.4563 29.0063 31.0188C29.0938 30.5813 29.2396 30.1583 29.4438 29.75H13.125C12.3667 29.75 11.7396 30.0052 11.2438 30.5156C10.7479 31.026 10.5 31.6458 10.5 32.375C10.5 33.1333 10.7479 33.7604 11.2438 34.2563C11.7396 34.7521 12.3667 35 13.125 35Z" fill="#0C1F3D"/>
</g>
</svg>
