<svg width="26" height="32" viewBox="0 0 26 32" fill="none" xmlns="http://www.w3.org/2000/svg">
<path d="M9.01875 19.5L13 17.0938L16.9813 19.5L15.9313 14.95L19.4312 11.9313L14.8375 11.5375L13 7.25L11.1625 11.5375L6.56875 11.9313L10.0688 14.95L9.01875 19.5ZM0.75 31.75V3.75C0.75 2.7875 1.09271 1.96354 1.77813 1.27813C2.46354 0.592708 3.2875 0.25 4.25 0.25H21.75C22.7125 0.25 23.5365 0.592708 24.2219 1.27813C24.9073 1.96354 25.25 2.7875 25.25 3.75V31.75L13 26.5L0.75 31.75ZM4.25 26.4125L13 22.65L21.75 26.4125V3.75H4.25V26.4125Z" fill="#1A1244"/>
</svg>
