<svg width="65" height="65" viewBox="0 0 65 65" fill="none" xmlns="http://www.w3.org/2000/svg">
<mask id="mask0_114_1401" style="mask-type:alpha" maskUnits="userSpaceOnUse" x="0" y="0" width="65" height="65">
<rect width="65" height="65" fill="#D9D9D9"/>
</mask>
<g mask="url(#mask0_114_1401)">
<path d="M32.5 59.5831C31.3264 59.5831 30.2656 59.301 29.3177 58.7368C28.3698 58.1725 27.625 57.4165 27.0833 56.4685C25.5937 56.4685 24.3186 55.9382 23.2578 54.8774C22.197 53.8166 21.6666 52.5415 21.6666 51.0519V41.4373C19.0035 39.6769 16.8706 37.3522 15.2682 34.4633C13.6658 31.5744 12.8646 28.4373 12.8646 25.0519C12.8646 19.5901 14.7717 14.952 18.5859 11.1378C22.4002 7.32358 27.0382 5.41646 32.5 5.41646C37.9618 5.41646 42.5998 7.32358 46.414 11.1378C50.2283 14.952 52.1354 19.5901 52.1354 25.0519C52.1354 28.5276 51.3342 31.6873 49.7318 34.531C48.1293 37.3748 45.9965 39.6769 43.3333 41.4373V51.0519C43.3333 52.5415 42.8029 53.8166 41.7422 54.8774C40.6814 55.9382 39.4062 56.4685 37.9166 56.4685C37.375 57.4165 36.6302 58.1725 35.6823 58.7368C34.7344 59.301 33.6736 59.5831 32.5 59.5831ZM27.0833 51.0519H37.9166V48.6144H27.0833V51.0519ZM27.0833 45.906H37.9166V43.3331H27.0833V45.906ZM26.5416 37.9165H30.4687V30.604L24.5104 24.6456L27.3541 21.8019L32.5 26.9477L37.6458 21.8019L40.4896 24.6456L34.5312 30.604V37.9165H38.4583C40.8958 36.7428 42.8819 35.0163 44.4166 32.7368C45.9514 30.4573 46.7187 27.8956 46.7187 25.0519C46.7187 21.0797 45.342 17.7168 42.5885 14.9633C39.835 12.2099 36.4722 10.8331 32.5 10.8331C28.5278 10.8331 25.1649 12.2099 22.4114 14.9633C19.658 17.7168 18.2812 21.0797 18.2812 25.0519C18.2812 27.8956 19.0486 30.4573 20.5833 32.7368C22.118 35.0163 24.1041 36.7428 26.5416 37.9165Z" fill="#1C1B1F"/>
</g>
</svg>
