<svg width="34" height="34" viewBox="0 0 34 34" fill="none" xmlns="http://www.w3.org/2000/svg">
<mask id="mask0_112_852" style="mask-type:alpha" maskUnits="userSpaceOnUse" x="0" y="0" width="34" height="34">
<rect width="34" height="34" fill="#D9D9D9"/>
</mask>
<g mask="url(#mask0_112_852)">
<path d="M1.41666 18.4167V15.5833H9.91666V18.4167H1.41666ZM10.9792 12.9625L8.00416 9.98749L9.98749 8.00416L12.9625 10.9792L10.9792 12.9625ZM15.5833 9.91666V1.41666H18.4167V9.91666H15.5833ZM23.0208 12.9625L21.0375 10.9792L24.0125 8.00416L25.9958 9.98749L23.0208 12.9625ZM24.0833 18.4167V15.5833H32.5833V18.4167H24.0833ZM17 21.25C15.8194 21.25 14.816 20.8368 13.9896 20.0104C13.1632 19.184 12.75 18.1805 12.75 17C12.75 15.8194 13.1632 14.816 13.9896 13.9896C14.816 13.1632 15.8194 12.75 17 12.75C18.1805 12.75 19.184 13.1632 20.0104 13.9896C20.8368 14.816 21.25 15.8194 21.25 17C21.25 18.1805 20.8368 19.184 20.0104 20.0104C19.184 20.8368 18.1805 21.25 17 21.25ZM24.0125 25.9958L21.0375 23.0208L23.0208 21.0375L25.9958 24.0125L24.0125 25.9958ZM9.98749 25.9958L8.00416 24.0125L10.9792 21.0375L12.9625 23.0208L9.98749 25.9958ZM15.5833 32.5833V24.0833H18.4167V32.5833H15.5833Z" fill="#1A1244"/>
</g>
</svg>
