<svg width="18" height="19" viewBox="0 0 18 19" fill="none" xmlns="http://www.w3.org/2000/svg">
<path d="M2.23549 4.96798C3.44388 4.96798 4.42349 3.98838 4.42349 2.77998C4.42349 1.57158 3.44388 0.59198 2.23549 0.59198C1.02709 0.59198 0.0474854 1.57158 0.0474854 2.77998C0.0474854 3.98838 1.02709 4.96798 2.23549 4.96798Z" fill="#C1FFD6"/>
<path d="M6.18949 6.26796V18.407H9.95848V12.404C9.95848 10.82 10.2565 9.28596 12.2205 9.28596C14.1575 9.28596 14.1815 11.097 14.1815 12.504V18.408H17.9525V11.751C17.9525 8.48096 17.2485 5.96796 13.4265 5.96796C11.5915 5.96796 10.3615 6.97496 9.85849 7.92796H9.80748V6.26796H6.18949ZM0.0474854 6.26796H3.82249V18.407H0.0474854V6.26796Z" fill="#C1FFD6"/>
</svg>
