<svg width="18" height="18" viewBox="0 0 18 18" fill="none" xmlns="http://www.w3.org/2000/svg">
<path d="M2.23549 4.4678C3.44388 4.4678 4.42349 3.4882 4.42349 2.2798C4.42349 1.0714 3.44388 0.0917969 2.23549 0.0917969C1.02709 0.0917969 0.0474854 1.0714 0.0474854 2.2798C0.0474854 3.4882 1.02709 4.4678 2.23549 4.4678Z" fill="#102F66"/>
<path d="M6.18949 5.76777V17.9068H9.95848V11.9038C9.95848 10.3198 10.2565 8.78577 12.2205 8.78577C14.1575 8.78577 14.1815 10.5968 14.1815 12.0038V17.9078H17.9525V11.2508C17.9525 7.98077 17.2485 5.46777 13.4265 5.46777C11.5915 5.46777 10.3615 6.47477 9.85849 7.42777H9.80748V5.76777H6.18949ZM0.0474854 5.76777H3.82249V17.9068H0.0474854V5.76777Z" fill="#102F66"/>
</svg>
