<svg width="18" height="18" viewBox="0 0 18 18" fill="none" xmlns="http://www.w3.org/2000/svg">
<path d="M2.2355 4.4678C3.4439 4.4678 4.4235 3.4882 4.4235 2.2798C4.4235 1.0714 3.4439 0.0917969 2.2355 0.0917969C1.0271 0.0917969 0.0475006 1.0714 0.0475006 2.2798C0.0475006 3.4882 1.0271 4.4678 2.2355 4.4678Z" fill="#102F66"/>
<path d="M6.1895 5.76777V17.9068H9.9585V11.9038C9.9585 10.3198 10.2565 8.78577 12.2205 8.78577C14.1575 8.78577 14.1815 10.5968 14.1815 12.0038V17.9078H17.9525V11.2508C17.9525 7.98077 17.2485 5.46777 13.4265 5.46777C11.5915 5.46777 10.3615 6.47477 9.8585 7.42777H9.8075V5.76777H6.1895ZM0.0475006 5.76777H3.8225V17.9068H0.0475006V5.76777Z" fill="#102F66"/>
</svg>
