<svg width="400" height="338" viewBox="0 0 400 338" fill="none" xmlns="http://www.w3.org/2000/svg">
<path d="M0 80.3862C0 102.841 18.4461 121.01 40.8895 121.712C89.5227 123.235 170.205 129.271 218.721 151.739C272.717 176.745 318.337 188.615 358.837 193.645C381.177 196.419 399.787 178.112 399.787 155.601V40C399.787 17.9086 381.879 0 359.787 0H40C17.9086 0 0 17.9086 0 40V80.3862Z" fill="url(#paint0_linear_21_1300)"/>
<path opacity="0.26" d="M288.853 244.706C289.183 244.944 289.546 245.143 289.833 245.411C299.538 254.473 309.231 263.554 318.925 272.626C319.021 272.715 319.128 272.805 319.223 272.904C319.65 273.341 319.809 273.838 319.564 274.404C319.309 274.99 318.808 275.269 318.148 275.289C317.519 275.308 316.891 275.289 316.262 275.289C311.745 275.289 307.229 275.289 302.712 275.289C302.435 275.289 302.169 275.289 301.817 275.289C301.817 275.626 301.817 275.905 301.817 276.183C301.817 287.251 301.817 298.33 301.817 309.398C301.817 310.988 301.381 311.395 299.676 311.395C292.113 311.395 284.55 311.395 276.986 311.395C275.484 311.395 275.016 310.958 275.016 309.567C275.016 298.449 275.016 287.331 275.016 276.222V275.289H274.163C269.178 275.289 264.203 275.289 259.218 275.289C258.984 275.289 258.749 275.298 258.525 275.269C257.322 275.1 256.81 273.888 257.567 272.993C257.727 272.805 257.918 272.646 258.099 272.477C267.655 263.554 277.221 254.632 286.787 245.719C287.181 245.352 287.617 245.044 288.033 244.706H288.874H288.853Z" fill="url(#paint1_linear_21_1300)"/>
<path opacity="0.26" d="M142.434 102.673C142.765 102.911 143.127 103.11 143.415 103.378C153.119 112.44 162.813 121.521 172.507 130.593C172.602 130.682 172.709 130.771 172.805 130.871C173.231 131.308 173.391 131.805 173.146 132.371C172.89 132.957 172.389 133.236 171.729 133.255C171.1 133.275 170.472 133.255 169.843 133.255C165.327 133.255 160.81 133.255 156.293 133.255C156.016 133.255 155.75 133.255 155.399 133.255C155.399 133.593 155.399 133.871 155.399 134.15C155.399 145.218 155.399 156.297 155.399 167.365C155.399 168.955 154.962 169.362 153.257 169.362C145.694 169.362 138.131 169.362 130.568 169.362C129.066 169.362 128.597 168.925 128.597 167.534C128.597 156.416 128.597 145.298 128.597 134.189V133.255H127.745C122.759 133.255 117.785 133.255 112.799 133.255C112.565 133.255 112.33 133.265 112.107 133.236C110.903 133.067 110.392 131.854 111.148 130.96C111.308 130.771 111.5 130.613 111.681 130.444C121.236 121.521 130.802 112.599 140.368 103.686C140.762 103.319 141.199 103.011 141.614 102.673H142.456H142.434Z" fill="url(#paint2_linear_21_1300)"/>
<path opacity="0.26" d="M91.2705 151.756C91.4196 151.865 91.59 151.955 91.7285 152.084C96.2026 156.267 100.687 160.46 105.161 164.643C105.204 164.683 105.257 164.722 105.3 164.772C105.502 164.971 105.566 165.209 105.46 165.467C105.342 165.736 105.108 165.865 104.81 165.875C104.522 165.875 104.235 165.875 103.936 165.875C101.848 165.875 99.7712 165.875 97.6833 165.875C97.5554 165.875 97.4276 165.875 97.2678 165.875C97.2678 166.034 97.2678 166.163 97.2678 166.282C97.2678 171.389 97.2678 176.506 97.2678 181.613C97.2678 182.348 97.0654 182.537 96.2771 182.537C92.7831 182.537 89.2891 182.537 85.8057 182.537C85.1133 182.537 84.9003 182.339 84.9003 181.693C84.9003 176.566 84.9003 171.429 84.9003 166.302V165.875H84.5061C82.2052 165.875 79.9042 165.875 77.6033 165.875C77.4968 165.875 77.3902 165.875 77.2837 165.875C76.7298 165.795 76.4954 165.239 76.847 164.822C76.9215 164.732 77.0067 164.663 77.092 164.583C81.5021 160.47 85.9229 156.346 90.333 152.233C90.5141 152.064 90.7165 151.915 90.9083 151.766H91.2918L91.2705 151.756Z" fill="url(#paint3_linear_21_1300)"/>
<path opacity="0.26" d="M254.701 103.965C254.85 104.074 255.021 104.163 255.159 104.292C259.633 108.475 264.118 112.668 268.592 116.851C268.635 116.891 268.688 116.931 268.731 116.98C268.933 117.179 268.997 117.418 268.89 117.676C268.773 117.944 268.539 118.073 268.241 118.083C267.953 118.083 267.665 118.083 267.367 118.083C265.279 118.083 263.202 118.083 261.114 118.083C260.986 118.083 260.858 118.083 260.699 118.083C260.699 118.242 260.699 118.372 260.699 118.491C260.699 123.598 260.699 128.715 260.699 133.822C260.699 134.557 260.496 134.746 259.708 134.746C256.214 134.746 252.72 134.746 249.237 134.746C248.544 134.746 248.331 134.547 248.331 133.901C248.331 128.774 248.331 123.638 248.331 118.511V118.083H247.937C245.636 118.083 243.335 118.083 241.034 118.083C240.928 118.083 240.821 118.083 240.715 118.083C240.161 118.004 239.926 117.447 240.278 117.03C240.352 116.941 240.438 116.871 240.523 116.792C244.933 112.678 249.354 108.555 253.764 104.441C253.945 104.273 254.147 104.123 254.339 103.974H254.723L254.701 103.965Z" fill="url(#paint4_linear_21_1300)"/>
<path d="M115.466 152C115.615 152.109 115.786 152.199 115.924 152.328C120.398 156.511 124.883 160.704 129.357 164.887C129.4 164.927 129.453 164.966 129.495 165.016C129.698 165.215 129.762 165.453 129.655 165.711C129.538 165.98 129.304 166.109 129.005 166.119C128.718 166.119 128.43 166.119 128.132 166.119C126.044 166.119 123.967 166.119 121.879 166.119C121.751 166.119 121.623 166.119 121.463 166.119C121.463 166.278 121.463 166.407 121.463 166.526C121.463 171.633 121.463 176.75 121.463 181.857C121.463 182.593 121.261 182.781 120.473 182.781C116.979 182.781 113.485 182.781 110.001 182.781C109.309 182.781 109.096 182.583 109.096 181.937C109.096 176.81 109.096 171.673 109.096 166.546V166.119H108.702C106.401 166.119 104.1 166.119 101.799 166.119C101.692 166.119 101.586 166.119 101.479 166.119C100.925 166.039 100.691 165.483 101.043 165.066C101.117 164.976 101.202 164.907 101.288 164.827C105.698 160.714 110.119 156.59 114.529 152.477C114.71 152.308 114.912 152.159 115.104 152.01H115.487L115.466 152Z" fill="url(#paint5_linear_21_1300)"/>
<path d="M359.266 251.969C358.499 252.684 357.477 255.894 357.477 255.894C357.477 255.894 356.38 252.754 355.613 252.039C354.846 251.323 351.479 250.3 351.479 250.3C351.479 250.3 354.835 249.267 355.602 248.551C356.369 247.836 357.477 244.706 357.477 244.706C357.477 244.706 358.531 247.895 359.298 248.601C360.065 249.306 363.474 250.3 363.474 250.3C363.474 250.3 360.023 251.254 359.266 251.969Z" fill="white"/>
<path d="M252.326 39.0137C251.772 39.5303 251.047 41.8355 251.047 41.8355C251.047 41.8355 250.259 39.58 249.705 39.0633C249.151 38.5467 246.733 37.8114 246.733 37.8114C246.733 37.8114 249.141 37.0662 249.695 36.5595C250.249 36.0528 251.037 33.7973 251.037 33.7973C251.037 33.7973 251.793 36.0826 252.336 36.5993C252.88 37.1159 255.34 37.8114 255.34 37.8114C255.34 37.8114 252.869 38.497 252.315 39.0037L252.326 39.0137Z" fill="white"/>
<path d="M51.4514 105.932C50.8655 106.478 50.0772 108.952 50.0772 108.952C50.0772 108.952 49.2357 106.538 48.6391 105.991C48.0426 105.445 45.4647 104.65 45.4647 104.65C45.4647 104.65 48.0426 103.855 48.6391 103.309C49.2357 102.762 50.0772 100.348 50.0772 100.348C50.0772 100.348 50.8868 102.802 51.4727 103.348C52.0586 103.895 54.6897 104.65 54.6897 104.65C54.6897 104.65 52.0373 105.385 51.4514 105.932Z" fill="white"/>
<path d="M127.376 30.5442C126.79 31.0906 126.002 33.5647 126.002 33.5647C126.002 33.5647 125.16 31.1502 124.564 30.6038C123.967 30.0573 121.389 29.2624 121.389 29.2624C121.389 29.2624 123.967 28.4676 124.564 27.9211C125.16 27.3746 126.002 24.9602 126.002 24.9602C126.002 24.9602 126.812 27.4144 127.397 27.9608C127.983 28.5073 130.614 29.2624 130.614 29.2624C130.614 29.2624 127.962 29.9977 127.376 30.5442Z" fill="white"/>
<path d="M346.452 40.524C345.334 41.5673 343.853 46.2471 343.853 46.2471C343.853 46.2471 342.255 41.6667 341.137 40.6333C340.018 39.6 335.118 38.0997 335.118 38.0997C335.118 38.0997 340.008 36.5894 341.126 35.5561C342.245 34.5228 343.853 29.9523 343.853 29.9523C343.853 29.9523 345.387 34.5923 346.506 35.6356C347.624 36.6789 352.599 38.1096 352.599 38.1096C352.599 38.1096 347.571 39.5006 346.463 40.534L346.452 40.524Z" fill="url(#paint6_linear_21_1300)"/>
<path opacity="0.26" d="M400 162.741C400 162.741 348.945 93.3255 218.614 76.5977C93.6138 60.5484 0.212814 83.7298 0.212814 83.7298V60.3949C0.212814 60.3949 173.774 -32.2824 400 33.6837V162.741Z" fill="url(#paint7_linear_21_1300)"/>
<path d="M335.682 81.42C345.024 81.42 352.598 74.3559 352.598 65.6418C352.598 56.9278 345.024 49.8637 335.682 49.8637C326.339 49.8637 318.766 56.9278 318.766 65.6418C318.766 74.3559 326.339 81.42 335.682 81.42Z" fill="url(#paint8_linear_21_1300)"/>
<path d="M341.647 79.9893C341.242 79.9694 340.22 80.3072 339.751 80.3172C339.272 80.3172 338.494 79.9992 337.546 79.8303C336.598 79.6614 335.383 80.1979 334.659 79.9495C333.935 79.7011 334.393 79.3633 333.434 78.7274C332.475 78.0915 331.996 78.1611 331.794 78.2306C331.591 78.3002 330.462 77.2569 330.792 76.8595C331.122 76.462 331.048 75.8261 330.856 75.3293C330.664 74.8326 330.302 74.7133 329.716 74.4649C329.13 74.2165 329.418 73.6204 329.759 72.905C330.1 72.1896 329.738 71.822 329.301 71.3053C328.864 70.7887 328.502 71.196 328.086 70.9973C327.671 70.7986 325.807 68.5332 328.257 66.5858C330.707 64.6384 328.044 61.6377 328.044 61.6377C328.044 61.6377 327.533 61.3993 327.479 61.2204C327.426 61.0416 328.204 60.6143 328.204 60.6143C328.204 60.6143 328.544 60.3163 328.598 60.0877C328.651 59.8592 328.491 59.7201 328.076 59.7598C327.66 59.7996 327.809 59.432 328.044 58.9451C328.278 58.4582 328.896 58.3589 329.152 57.8224C329.407 57.2759 329.833 56.3518 329.802 55.9246C329.759 55.4974 329.525 54.9111 329.78 54.6528C330.036 54.3845 330.398 54.2256 330.6 53.997C330.813 53.7685 330.387 53.699 330.206 53.54C330.025 53.3711 330.228 53.3015 330.281 53.2121C330.334 53.1227 330.792 53.1724 330.877 53.073C330.963 52.9737 330.877 52.7252 330.654 52.6259C330.441 52.5265 329.951 52.5563 329.876 52.457C329.802 52.3576 329.887 52.1192 330.11 51.8509C330.323 51.5826 331.048 52.5563 331.485 51.9006C331.911 51.2448 333.892 49.983 333.945 49.9532C333.541 49.9929 333.136 50.0426 332.731 50.1022C323.527 51.6224 317.391 59.8095 319.021 68.3842C320.651 76.9688 329.429 82.6918 338.622 81.1716C341.083 80.7643 343.309 79.88 345.248 78.6479C343.916 79.3434 342.041 79.9992 341.636 79.9793L341.647 79.9893Z" fill="url(#paint9_linear_21_1300)"/>
<path d="M351.778 60.803L336.513 61.5681L318.776 65.6418C318.776 66.546 318.861 67.47 319.032 68.394C319.138 68.9504 319.277 69.487 319.437 70.0136C327.319 63.5652 351.66 60.813 351.788 60.803H351.778Z" fill="#073F82"/>
<path d="M334.819 61.0714C322.089 63.1679 303.479 67.9868 304.363 72.6368C304.939 75.6573 313.237 76.1143 322.473 75.4884C322.057 75.0114 321.684 74.5047 321.333 73.9781C311.564 74.5345 306.27 73.5111 306.057 72.3586C305.737 70.6993 315.442 65.9003 335.117 62.6512C354.792 59.4022 365.669 60.8131 365.977 62.4724C366.19 63.6249 361.61 66.2778 352.236 68.881C352.097 69.4871 351.916 70.0832 351.703 70.6695C360.609 68.3047 368.246 65.2147 367.671 62.1942C366.787 57.5442 347.538 58.9749 334.808 61.0714H334.819Z" fill="url(#paint10_linear_21_1300)"/>
<path d="M60.7191 63.7639C68.7673 63.7639 75.2917 57.6785 75.2917 50.1717C75.2917 42.6649 68.7673 36.5794 60.7191 36.5794C52.6708 36.5794 46.1464 42.6649 46.1464 50.1717C46.1464 57.6785 52.6708 63.7639 60.7191 63.7639Z" fill="url(#paint11_linear_21_1300)"/>
<path d="M67.2917 61.9159C66.9508 61.9357 66.1092 62.3133 65.6938 62.363C65.289 62.4127 64.5859 62.204 63.755 62.1444C62.9241 62.0848 61.9335 62.6511 61.2943 62.5021C60.6552 62.353 61.0067 62.0252 60.1119 61.5582C59.2171 61.1011 58.8229 61.2005 58.6525 61.28C58.482 61.3595 57.4061 60.5646 57.6511 60.197C57.8961 59.8293 57.7683 59.2829 57.5446 58.8854C57.3209 58.488 57.012 58.4085 56.4794 58.2495C55.9467 58.0906 56.1385 57.554 56.3622 56.9082C56.5859 56.2624 56.2344 55.9842 55.8083 55.5867C55.3822 55.1893 55.1158 55.5669 54.7324 55.4277C54.3489 55.2886 52.5273 53.5201 54.4234 51.6322C56.3196 49.7444 53.731 47.4194 53.731 47.4194C53.731 47.4194 53.273 47.2605 53.209 47.1114C53.1451 46.9624 53.7736 46.5252 53.7736 46.5252C53.7736 46.5252 54.0293 46.247 54.0612 46.0384C54.0826 45.8396 53.9334 45.7403 53.5819 45.8098C53.2303 45.8794 53.3262 45.5515 53.4754 45.1143C53.6245 44.6771 54.1465 44.538 54.3063 44.0512C54.466 43.5643 54.743 42.7297 54.6684 42.372C54.5939 42.0143 54.3276 41.5374 54.5193 41.289C54.711 41.0406 55.0093 40.8717 55.1585 40.6531C55.3076 40.4345 54.9454 40.4246 54.775 40.2954C54.6045 40.1663 54.775 40.0967 54.8069 40.0073C54.8389 39.9179 55.2437 39.9278 55.3076 39.8284C55.3715 39.7291 55.265 39.5304 55.0732 39.4608C54.8815 39.3913 54.466 39.4608 54.3915 39.3913C54.3169 39.3118 54.3702 39.1031 54.53 38.8547C54.6897 38.6063 55.4035 39.3714 55.7017 38.7752C56 38.1791 57.5659 36.9172 57.6085 36.8874C57.2677 36.957 56.9268 37.0365 56.5859 37.1259C48.8628 39.2522 44.4527 46.8134 46.7323 54.0169C49.012 61.2204 57.1185 65.3338 64.8416 63.2075C66.8975 62.6412 68.7298 61.6873 70.2531 60.4553C69.1878 61.1707 67.6432 61.896 67.3023 61.9258L67.2917 61.9159Z" fill="url(#paint12_linear_21_1300)"/>
<path d="M74.0028 44.5778L61.0067 46.6047L46.2317 51.6919C46.3276 52.4669 46.4873 53.2518 46.7324 54.0268C46.8815 54.4938 47.0519 54.9409 47.2437 55.3781C53.3263 49.1483 73.8856 44.6176 73.9921 44.5878L74.0028 44.5778Z" fill="#073F82"/>
<path d="M59.5047 46.3364C48.8309 49.2775 33.3847 55.0601 34.6204 58.9749C35.4194 61.5085 42.5779 61.1508 50.4288 59.7896C50.024 59.412 49.6511 59.0146 49.2996 58.5973C40.9906 59.9486 36.3568 59.5412 36.0479 58.5774C35.6111 57.1864 43.4194 52.2085 59.9308 47.6579C76.4422 43.1172 85.9016 43.3457 86.3384 44.7368C86.6473 45.7005 82.9935 48.3832 75.2278 51.4534C75.1745 51.9899 75.0787 52.5165 74.9509 53.0332C82.333 50.2015 88.5541 46.8829 87.7552 44.3493C86.5195 40.4445 70.1892 43.3954 59.5047 46.3364Z" fill="url(#paint13_linear_21_1300)"/>
<path d="M53.454 271.925H36.2822C34.882 271.925 33.7469 272.984 33.7469 274.29V295.791C33.7469 297.097 34.882 298.156 36.2822 298.156H53.454C54.8542 298.156 55.9893 297.097 55.9893 295.791V274.29C55.9893 272.984 54.8542 271.925 53.454 271.925Z" fill="url(#paint14_linear_21_1300)"/>
<path d="M89.2039 234.427H72.032C70.6318 234.427 69.4967 235.486 69.4967 236.792V295.791C69.4967 297.097 70.6318 298.156 72.032 298.156H89.2039C90.6041 298.156 91.7392 297.097 91.7392 295.791V236.792C91.7392 235.486 90.6041 234.427 89.2039 234.427Z" fill="url(#paint15_linear_21_1300)"/>
<path d="M124.964 240.726H107.793C106.392 240.726 105.257 241.785 105.257 243.091V295.791C105.257 297.097 106.392 298.156 107.793 298.156H124.964C126.365 298.156 127.5 297.097 127.5 295.791V243.091C127.5 241.785 126.365 240.726 124.964 240.726Z" fill="url(#paint16_linear_21_1300)"/>
<path d="M160.714 220H143.542C142.142 220 141.007 221.059 141.007 222.365V295.791C141.007 297.097 142.142 298.156 143.542 298.156H160.714C162.114 298.156 163.25 297.097 163.25 295.791V222.365C163.25 221.059 162.114 220 160.714 220Z" fill="url(#paint17_linear_21_1300)"/>
<path d="M54.8282 298.156H37.6457C36.2502 298.156 34.4606 298.682 33.651 299.338L20.3354 310.088C19.5258 310.744 20.0052 311.271 21.4006 311.271H38.5831C39.9786 311.271 41.7682 310.744 42.5778 310.088L55.8935 299.338C56.7031 298.682 56.2237 298.156 54.8282 298.156Z" fill="url(#paint18_linear_21_1300)"/>
<path d="M90.5781 298.156H73.3956C72.0001 298.156 70.2105 298.682 69.4009 299.338L32.8734 328.837C32.0638 329.493 32.5432 330.02 33.9387 330.02H51.1212C52.5167 330.02 54.3063 329.493 55.1159 328.837L91.6433 299.338C92.4529 298.682 91.9736 298.156 90.5781 298.156Z" fill="url(#paint19_linear_21_1300)"/>
<path d="M126.328 298.156H109.145C107.75 298.156 105.96 298.682 105.151 299.338L72.5221 325.688C71.7125 326.344 72.1918 326.87 73.5873 326.87H90.7698C92.1653 326.87 93.9549 326.344 94.7645 325.688L127.393 299.338C128.203 298.682 127.723 298.156 126.328 298.156Z" fill="url(#paint20_linear_21_1300)"/>
<path d="M162.078 298.156H144.895C143.5 298.156 141.71 298.682 140.901 299.338L95.4463 336.051C94.6367 336.707 95.116 337.233 96.5115 337.233H113.694C115.089 337.233 116.879 336.707 117.689 336.051L163.143 299.338C163.953 298.682 163.473 298.156 162.078 298.156Z" fill="url(#paint21_linear_21_1300)"/>
<path d="M196.492 31H103.112C96.4819 31 91.1069 36.0134 91.1069 42.1977V93.8742C91.1069 100.058 96.4819 105.072 103.112 105.072H196.492C203.123 105.072 208.498 100.058 208.498 93.8742V42.1977C208.498 36.0134 203.123 31 196.492 31Z" fill="white"/>
<path d="M104.273 91.4299H195.32V66.8287C195.32 66.8287 177.179 66.3816 168.753 74.6482C160.327 82.9049 157.035 74.6482 146.606 75.5822C136.178 76.5162 140.183 85.4386 126.75 85.5777C113.317 85.7069 112.369 91.9764 104.273 91.4398V91.4299Z" fill="url(#paint22_linear_21_1300)"/>
<path d="M104.273 91.9267C104.199 91.9267 104.114 91.9068 104.05 91.877C103.783 91.7578 103.666 91.4597 103.794 91.2113C103.858 91.0921 110.09 79.0399 124.439 68.021C137.68 57.8566 160.742 46.5099 195.374 50.1365C195.661 50.1663 195.874 50.4147 195.842 50.6829C195.81 50.9512 195.533 51.1499 195.256 51.1201C160.987 47.5233 138.202 58.7409 125.12 68.7861C110.953 79.6658 104.817 91.5193 104.753 91.6386C104.668 91.8174 104.476 91.9267 104.273 91.9267Z" fill="url(#paint23_linear_21_1300)"/>
<path d="M240.863 332.474C275.909 332.474 304.32 326.34 304.32 318.773C304.32 311.206 275.909 305.071 240.863 305.071C205.817 305.071 177.406 311.206 177.406 318.773C177.406 326.34 205.817 332.474 240.863 332.474Z" fill="url(#paint24_linear_21_1300)"/>
<path d="M239.627 293.734L239.031 301.405L235.068 304.555L227.548 299.865V292.91L239.627 293.734Z" fill="url(#paint25_linear_21_1300)"/>
<path d="M268.741 294.34L269.572 297.54V302.398L268.741 306.82L258.333 303.839V295.553L268.741 294.34Z" fill="url(#paint26_linear_21_1300)"/>
<path d="M269.103 301.584C269.103 301.584 267.122 305.3 265.982 304.366C264.842 303.432 263.223 300.779 259.75 300.411C256.277 300.044 255.649 302.031 254.541 304.018C253.433 306.005 249.055 311.788 243.079 314.381C237.103 316.974 243.249 320.462 249.939 319.786C256.629 319.111 264.096 315.534 265.087 315.176C265.087 315.176 265.343 315.891 266.482 315.782C267.622 315.673 270.978 313.874 271.457 313.288C271.937 312.702 271.809 309.691 271.457 308.271C271.106 306.85 271.308 299.527 269.092 301.594L269.103 301.584Z" fill="url(#paint27_linear_21_1300)"/>
<path d="M238.339 300.868C238.339 300.868 235.09 303.76 233.928 302.846C232.767 301.931 232.703 298.563 229.231 298.245C225.747 297.937 224.874 300.64 223.809 302.647C222.743 304.654 217.14 310.526 211.217 313.219C205.284 315.911 211.494 319.299 218.184 318.514C224.863 317.739 229.39 313.378 230.37 313C230.37 313 230.882 314.173 232.011 314.053C233.14 313.934 239.585 311.967 240.054 311.371C240.522 310.774 240.426 307.913 240.054 306.502C239.67 305.091 240.661 300.143 238.349 300.868H238.339Z" fill="url(#paint28_linear_21_1300)"/>
<path d="M231.894 63.1925L230.296 58.9102C230.296 58.9102 221.316 53.207 227.058 46.0929C232.81 38.9689 239.457 42.824 241.343 45.1689C243.228 47.5137 249.694 44.1653 251.761 47.5137C253.827 50.8621 261.06 45.0993 262.232 57.4198C263.404 69.7402 259.1 73.7643 259.1 73.7643L248.746 75.1255L231.894 63.2024V63.1925Z" fill="#1A1244"/>
<path d="M273.332 169.407L263.052 166.396L255.191 168.254L255.02 166.396L225.353 169.705C225.353 169.705 219.825 219.195 219.537 224.233C219.249 229.27 225.225 296.338 225.225 296.338C225.225 296.338 227.888 296.705 232.384 296.506C236.815 296.308 239.99 295.88 239.99 295.88C239.99 295.88 244.538 241.472 244.538 238.63C244.538 235.788 245.167 232.45 245.167 232.45L249.449 217.904C250.046 224.422 250.259 234.228 250.397 235.172C250.919 238.819 255.074 298.235 255.074 298.235H265.119C269.263 298.235 269.582 297.56 269.582 297.56C269.582 297.56 275.953 238.252 275.345 235.182C275.1 233.95 274.61 228.943 274.61 228.943C274.61 228.943 275.164 212.896 275.814 194.624C276.464 176.362 273.343 169.417 273.343 169.417L273.332 169.407Z" fill="url(#paint29_linear_21_1300)"/>
<path d="M246.69 194.425C245.284 194.048 236.251 190.868 235.047 191.614C233.843 192.359 230.626 222.514 231.436 225.882C232.245 229.251 234.45 234.745 234.184 236.742C233.928 238.67 234.972 292.632 235.047 296.348C238.019 296.139 239.979 295.881 239.979 295.881C239.979 295.881 244.528 241.472 244.528 238.63C244.528 235.788 245.156 232.45 245.156 232.45L249.438 217.904C249.438 217.904 248.096 194.813 246.69 194.435V194.425Z" fill="url(#paint30_linear_21_1300)"/>
<path d="M268.347 187.361C268.506 189.785 270.712 187.212 270.712 188.027C270.712 188.841 269.529 188.832 269.05 189.646C268.57 190.461 268.89 197.963 268.581 199.95C268.261 201.937 267.164 218.023 267.313 219.931C267.473 221.848 270.637 223.796 271.159 225.336C271.681 226.886 271.521 232.46 270.861 234.447C270.2 236.434 269.21 238.362 269.327 241.015C269.412 242.853 266.6 284.057 266.845 298.215L269.572 297.868C271.202 282.437 275.814 237.597 275.335 235.153C275.09 233.92 274.6 228.913 274.6 228.913C274.6 228.913 275.154 212.866 275.803 194.594C276.453 176.332 273.332 169.387 273.332 169.387L268.57 167.996L266.461 168.87C266.461 168.87 268.198 184.917 268.357 187.341L268.347 187.361Z" fill="url(#paint31_linear_21_1300)"/>
<path d="M255.393 75.1155L256.618 86.3629L259.1 86.4921C259.1 86.4921 257.311 101.326 257.311 101.555C257.311 101.783 237.667 98.4449 237.167 98.6735C236.666 98.902 237.124 90.3571 238.775 89.612C239.404 89.3238 241.737 88.9959 241.907 88.529C242.078 88.062 243.047 82.9351 243.047 82.9351L255.404 75.1056L255.393 75.1155Z" fill="url(#paint32_linear_21_1300)"/>
<path d="M230.498 58.7909C230.498 58.7909 231.67 60.4303 235.132 59.5758C238.594 58.7213 246.328 54.3197 248.064 57.4098C249.801 60.4998 248.118 68.8161 250.11 71.1312C252.091 73.4562 254.307 72.8302 254.626 71.6777C254.946 70.5251 257.47 65.2094 260.943 68.9851C262.04 70.1873 261.699 72.3633 259.143 74.7081C258.024 75.7315 255.127 76.0892 254.307 76.0892C252.41 76.0892 252.293 80.143 251.612 81.5837C250.28 84.4254 249.225 85.5084 246.882 86.2834C240.043 88.5388 235.015 85.2401 233.598 81.852C232.181 78.4639 229.476 61.6822 230.509 58.7809L230.498 58.7909Z" fill="url(#paint33_linear_21_1300)"/>
<path d="M241.694 88.6481C241.694 88.6481 225.119 88.7972 217.321 102.002C209.523 115.197 208.384 122.38 208.384 122.38L227.601 167.569L227.782 172.725C227.782 172.725 253.508 174.742 273.321 169.715C273.321 169.715 273.375 154.155 275.324 150.747C277.273 147.339 281.684 134.85 282.184 132.197L301.188 129.037C301.188 129.037 288.576 96.4378 281.417 92.394C274.259 88.3501 259.409 86.3629 259.09 86.502C258.77 86.6411 253.646 97.3519 242.546 95.633C242.546 95.633 241.268 95.4343 241.332 92.4436C241.406 89.4529 241.683 88.6581 241.683 88.6581L241.694 88.6481Z" fill="url(#paint34_linear_21_1300)"/>
<path d="M275.335 150.737C277.284 147.329 281.694 134.84 282.195 132.187L285.359 131.184L267.281 120.383L242.365 137.046L222.552 155.636L226.024 167.191L225.002 172.884C225.002 172.884 253.518 174.723 273.343 169.685C273.343 169.685 273.396 154.126 275.345 150.718L275.335 150.737Z" fill="url(#paint35_linear_21_1300)"/>
<path d="M264.171 115.078L255.308 114.65C255.308 114.65 256.586 119.131 257.279 119.429C257.971 119.727 263.574 118.287 263.787 118.088C264 117.889 264.16 115.078 264.16 115.078H264.171Z" fill="url(#paint36_linear_21_1300)"/>
<path d="M256.373 104.228L271.447 159.461C271.447 159.461 229.358 184.817 184.288 162.819L166.605 106.702C166.605 106.702 209.406 122.142 256.363 104.218L256.373 104.228Z" fill="url(#paint37_linear_21_1300)"/>
<path d="M176.085 137.036C175.627 137.135 174.349 136.897 173.614 136.142C173.38 135.903 173.135 135.237 172.804 134.8C172.474 134.363 172.059 134.194 171.835 133.866C171.579 133.489 171.633 133.121 171.26 132.336C171.079 131.959 170.567 131.442 170.461 131.233C169.928 130.17 170.365 130.349 170.152 129.236C170.067 128.799 169.864 128.421 169.854 127.994C169.811 125.172 172.953 121.695 174.69 122.003C176.426 122.311 181.486 124.199 182.445 126.196C183.404 128.193 182.86 133.598 181.369 135.436C179.878 137.274 178.205 134.989 177.971 134.492C177.736 133.995 176.81 132.545 176.522 133.827C176.245 135.108 176.948 136.877 176.085 137.056V137.036Z" fill="url(#paint38_linear_21_1300)"/>
<path d="M277.103 119.469C277.007 119.429 277.103 118.863 277.103 118.863C277.103 118.863 276.602 111.183 275.196 111.183C273.79 111.183 274.088 115.962 270.381 117.452C266.664 118.952 276.112 120.383 276.112 120.383L277.114 119.469H277.103Z" fill="url(#paint39_linear_21_1300)"/>
<path d="M229.848 91.3606C229.848 91.3606 233.545 94.8978 238.062 95.7423C242.578 96.5869 245.902 95.7721 245.902 95.7721V95.7522C244.847 95.8218 243.739 95.8019 242.557 95.6231C242.557 95.6231 241.279 95.4244 241.343 92.4337C241.417 89.443 241.694 88.6481 241.694 88.6481C241.694 88.6481 236.07 88.7077 229.838 91.3507L229.848 91.3606Z" fill="url(#paint40_linear_21_1300)"/>
<path d="M301.199 129.028C301.199 129.028 297.79 120.214 293.508 111.193C293.508 111.213 293.614 114.471 293.508 115.405C293.401 116.339 290.866 115.713 290.791 116.657C290.728 117.591 295.074 118.962 295.809 120.84C296.544 122.708 289.694 120.354 281.971 120.036C276.123 119.797 286.754 127.02 292.23 130.528L301.188 129.037L301.199 129.028Z" fill="url(#paint41_linear_21_1300)"/>
<path d="M199.031 168.463C238.125 179.531 271.447 159.461 271.447 159.461L256.373 104.228C244.006 108.947 231.915 111.352 220.826 112.335C220.826 112.335 210.418 114.481 200.725 114.521C200.725 114.521 216.117 166.963 214.093 168.016C212.368 168.91 203.867 169.645 199.031 168.463Z" fill="url(#paint42_linear_21_1300)"/>
<path d="M299.164 126.822C295.074 123.384 269.103 116.19 269.103 116.19C263.905 114.054 262.445 115.584 260.954 115.882C260.634 115.942 260.208 116.161 259.718 116.459C259.303 116.687 258.909 116.886 258.482 117.055C251.462 119.022 247.606 117.561 246.211 120.294C245.327 122.023 255.159 120.512 254.893 121.128C254.626 121.744 245.774 123.781 245.188 127.001C244.528 130.627 256.522 121.913 256.128 123.304C255.564 125.252 248.426 127.974 249.417 130.945C250.461 134.105 256.576 124.854 259.164 125.451C260.858 125.848 253.401 129.822 255.585 131.988C256.544 132.942 257.012 131.76 260.08 128.441C260.943 127.507 261.71 126.782 262.381 126.216C263.031 125.699 264.416 125.242 264.874 125.043C267.654 123.851 268.453 122.5 268.453 122.5C268.453 122.5 283.345 135.993 291.931 140.881C300.517 145.769 302.467 140.782 303.713 138.834C304.949 136.887 303.266 130.25 299.175 126.812L299.164 126.822Z" fill="url(#paint43_linear_21_1300)"/>
<path d="M300.741 133.707C299.282 135.516 295.926 134.701 294.232 134.552C292.539 134.403 276.677 125.311 274.312 122.887C271.947 120.463 270.967 121.705 269.849 121.506C268.73 121.307 268.443 122.519 268.443 122.519C268.443 122.519 283.335 136.012 291.921 140.901C300.507 145.789 302.456 140.801 303.702 138.854C304.714 137.264 303.788 132.584 301.199 129.037C301.199 129.037 301.199 133.151 300.752 133.707H300.741Z" fill="url(#paint44_linear_21_1300)"/>
<defs>
<linearGradient id="paint0_linear_21_1300" x1="194.584" y1="214.442" x2="196.468" y2="-7.57742" gradientUnits="userSpaceOnUse">
<stop offset="0.01" stop-color="#C7E4F9"/>
<stop offset="0.5" stop-color="#348BE2"/>
<stop offset="0.99" stop-color="#0F53B7"/>
</linearGradient>
<linearGradient id="paint1_linear_21_1300" x1="257.205" y1="278.061" x2="319.682" y2="278.061" gradientUnits="userSpaceOnUse">
<stop offset="0.01" stop-color="#C7E4F9"/>
<stop offset="0.99" stop-color="white" stop-opacity="0.1"/>
</linearGradient>
<linearGradient id="paint2_linear_21_1300" x1="110.786" y1="136.018" x2="173.263" y2="136.018" gradientUnits="userSpaceOnUse">
<stop offset="0.01" stop-color="#C7E4F9"/>
<stop offset="0.99" stop-color="white" stop-opacity="0.1"/>
</linearGradient>
<linearGradient id="paint3_linear_21_1300" x1="76.6552" y1="167.147" x2="105.492" y2="167.147" gradientUnits="userSpaceOnUse">
<stop offset="0.01" stop-color="#C7E4F9"/>
<stop offset="0.99" stop-color="white" stop-opacity="0.1"/>
</linearGradient>
<linearGradient id="paint4_linear_21_1300" x1="240.097" y1="119.355" x2="268.933" y2="119.355" gradientUnits="userSpaceOnUse">
<stop offset="0.01" stop-color="#C7E4F9"/>
<stop offset="0.99" stop-color="white" stop-opacity="0.1"/>
</linearGradient>
<linearGradient id="paint5_linear_21_1300" x1="117.969" y1="182.851" x2="108.24" y2="110.812" gradientUnits="userSpaceOnUse">
<stop stop-color="white"/>
<stop offset="1" stop-color="#329FF9"/>
</linearGradient>
<linearGradient id="paint6_linear_21_1300" x1="335.107" y1="38.0997" x2="352.599" y2="38.0997" gradientUnits="userSpaceOnUse">
<stop offset="0.01" stop-color="#FCD765"/>
<stop offset="1" stop-color="#F4B027"/>
</linearGradient>
<linearGradient id="paint7_linear_21_1300" x1="0.212814" y1="86.363" x2="400" y2="86.363" gradientUnits="userSpaceOnUse">
<stop offset="0.01" stop-color="#C7E4F9"/>
<stop offset="0.99" stop-color="white" stop-opacity="0.1"/>
</linearGradient>
<linearGradient id="paint8_linear_21_1300" x1="366.798" y1="85.4684" x2="316.523" y2="48.6245" gradientUnits="userSpaceOnUse">
<stop offset="0.01" stop-color="#FC5E92"/>
<stop offset="0.99" stop-color="#9B3CBA"/>
</linearGradient>
<linearGradient id="paint9_linear_21_1300" x1="357.923" y1="70.7031" x2="326.851" y2="63.2982" gradientUnits="userSpaceOnUse">
<stop offset="0.01" stop-color="#FC5E92"/>
<stop offset="0.99" stop-color="#9B3CBA"/>
</linearGradient>
<linearGradient id="paint10_linear_21_1300" x1="306.41" y1="77.8461" x2="364.54" y2="54.3833" gradientUnits="userSpaceOnUse">
<stop offset="0.01" stop-color="#FCD765"/>
<stop offset="1" stop-color="#F4B027"/>
</linearGradient>
<linearGradient id="paint11_linear_21_1300" x1="89.4126" y1="64.3604" x2="42.3926" y2="37.6151" gradientUnits="userSpaceOnUse">
<stop offset="0.01" stop-color="#29D6A9"/>
<stop offset="0.99" stop-color="#138760"/>
</linearGradient>
<linearGradient id="paint12_linear_21_1300" x1="80.2748" y1="52.4906" x2="52.8607" y2="49.3281" gradientUnits="userSpaceOnUse">
<stop offset="0.01" stop-color="#29D6A9"/>
<stop offset="0.99" stop-color="#138760"/>
</linearGradient>
<linearGradient id="paint13_linear_21_1300" x1="34.5565" y1="51.6621" x2="87.8191" y2="51.6621" gradientUnits="userSpaceOnUse">
<stop offset="0.01" stop-color="#FCD765"/>
<stop offset="1" stop-color="#F4B027"/>
</linearGradient>
<linearGradient id="paint14_linear_21_1300" x1="33.7469" y1="285.04" x2="55.9893" y2="285.04" gradientUnits="userSpaceOnUse">
<stop offset="0.01" stop-color="#FCD765"/>
<stop offset="1" stop-color="#F4B027"/>
</linearGradient>
<linearGradient id="paint15_linear_21_1300" x1="69.4967" y1="266.291" x2="91.7498" y2="266.291" gradientUnits="userSpaceOnUse">
<stop offset="0.01" stop-color="#FCD765"/>
<stop offset="1" stop-color="#F4B027"/>
</linearGradient>
<linearGradient id="paint16_linear_21_1300" x1="105.257" y1="269.441" x2="127.5" y2="269.441" gradientUnits="userSpaceOnUse">
<stop offset="0.01" stop-color="#FCD765"/>
<stop offset="1" stop-color="#F4B027"/>
</linearGradient>
<linearGradient id="paint17_linear_21_1300" x1="141.007" y1="259.078" x2="163.25" y2="259.078" gradientUnits="userSpaceOnUse">
<stop offset="0.01" stop-color="#FCD765"/>
<stop offset="1" stop-color="#F4B027"/>
</linearGradient>
<linearGradient id="paint18_linear_21_1300" x1="36.7083" y1="312.572" x2="46.1479" y2="251.86" gradientUnits="userSpaceOnUse">
<stop stop-color="white"/>
<stop offset="1" stop-color="#329FF9"/>
</linearGradient>
<linearGradient id="paint19_linear_21_1300" x1="54.5832" y1="321.445" x2="116.923" y2="252.817" gradientUnits="userSpaceOnUse">
<stop stop-color="white"/>
<stop offset="1" stop-color="#329FF9"/>
</linearGradient>
<linearGradient id="paint20_linear_21_1300" x1="98.2479" y1="322.141" x2="107.687" y2="261.418" gradientUnits="userSpaceOnUse">
<stop stop-color="white"/>
<stop offset="1" stop-color="#329FF9"/>
</linearGradient>
<linearGradient id="paint21_linear_21_1300" x1="127.691" y1="326.721" x2="137.131" y2="265.998" gradientUnits="userSpaceOnUse">
<stop stop-color="white"/>
<stop offset="1" stop-color="#329FF9"/>
</linearGradient>
<linearGradient id="paint22_linear_21_1300" x1="104.273" y1="79.1492" x2="195.32" y2="79.1492" gradientUnits="userSpaceOnUse">
<stop offset="0.01" stop-color="#102F66"/>
<stop offset="1" stop-color="#0060C9"/>
</linearGradient>
<linearGradient id="paint23_linear_21_1300" x1="103.741" y1="70.6938" x2="195.853" y2="70.6938" gradientUnits="userSpaceOnUse">
<stop offset="0.01" stop-color="#FCD765"/>
<stop offset="1" stop-color="#F4B027"/>
</linearGradient>
<linearGradient id="paint24_linear_21_1300" x1="241.736" y1="312.553" x2="238.207" y2="341.192" gradientUnits="userSpaceOnUse">
<stop offset="0.01" stop-color="#C7E4F9"/>
<stop offset="0.99" stop-color="white" stop-opacity="0.1"/>
</linearGradient>
<linearGradient id="paint25_linear_21_1300" x1="227.548" y1="298.732" x2="239.627" y2="298.732" gradientUnits="userSpaceOnUse">
<stop stop-color="#FFE9DE"/>
<stop offset="0.44" stop-color="#FEDDCC"/>
<stop offset="1" stop-color="#FCCEB6"/>
</linearGradient>
<linearGradient id="paint26_linear_21_1300" x1="258.333" y1="300.58" x2="269.572" y2="300.58" gradientUnits="userSpaceOnUse">
<stop stop-color="#FFE9DE"/>
<stop offset="0.44" stop-color="#FEDDCC"/>
<stop offset="1" stop-color="#FCCEB6"/>
</linearGradient>
<linearGradient id="paint27_linear_21_1300" x1="265.225" y1="320.283" x2="250.728" y2="301.623" gradientUnits="userSpaceOnUse">
<stop stop-color="#0C1F3D"/>
<stop offset="0.54" stop-color="#102F66"/>
<stop offset="1" stop-color="#0060C9"/>
</linearGradient>
<linearGradient id="paint28_linear_21_1300" x1="235.271" y1="323.025" x2="217.74" y2="296.839" gradientUnits="userSpaceOnUse">
<stop stop-color="#0C1F3D"/>
<stop offset="0.54" stop-color="#102F66"/>
<stop offset="1" stop-color="#0060C9"/>
</linearGradient>
<linearGradient id="paint29_linear_21_1300" x1="307.42" y1="249.341" x2="184.609" y2="209.248" gradientUnits="userSpaceOnUse">
<stop offset="0.01" stop-color="#102F66"/>
<stop offset="1" stop-color="#0060C9"/>
</linearGradient>
<linearGradient id="paint30_linear_21_1300" x1="290.27" y1="247.423" x2="216.456" y2="242.014" gradientUnits="userSpaceOnUse">
<stop stop-color="#0C1F3D"/>
<stop offset="0.54" stop-color="#102F66"/>
<stop offset="1" stop-color="#0060C9"/>
</linearGradient>
<linearGradient id="paint31_linear_21_1300" x1="286.286" y1="234.845" x2="255.556" y2="231.56" gradientUnits="userSpaceOnUse">
<stop stop-color="#0C1F3D"/>
<stop offset="0.54" stop-color="#102F66"/>
<stop offset="1" stop-color="#0060C9"/>
</linearGradient>
<linearGradient id="paint32_linear_21_1300" x1="253.987" y1="88.6979" x2="248.097" y2="89.7105" gradientUnits="userSpaceOnUse">
<stop stop-color="#FFE9DE"/>
<stop offset="0.44" stop-color="#FEDDCC"/>
<stop offset="1" stop-color="#FCCEB6"/>
</linearGradient>
<linearGradient id="paint33_linear_21_1300" x1="240.333" y1="69.9723" x2="255.496" y2="80.5397" gradientUnits="userSpaceOnUse">
<stop stop-color="#FFE9DE"/>
<stop offset="0.44" stop-color="#FEDDCC"/>
<stop offset="1" stop-color="#FCCEB6"/>
</linearGradient>
<linearGradient id="paint34_linear_21_1300" x1="240.608" y1="85.5779" x2="265.643" y2="166.987" gradientUnits="userSpaceOnUse">
<stop stop-color="#C7E4F9"/>
<stop offset="1" stop-color="#329FF9"/>
</linearGradient>
<linearGradient id="paint35_linear_21_1300" x1="237.635" y1="102.966" x2="263.503" y2="186.187" gradientUnits="userSpaceOnUse">
<stop offset="0.01" stop-color="#C7E4F9"/>
<stop offset="0.32" stop-color="#6DBAF9"/>
<stop offset="0.51" stop-color="#329FF9"/>
<stop offset="1" stop-color="#348BE2"/>
</linearGradient>
<linearGradient id="paint36_linear_21_1300" x1="255.308" y1="117.065" x2="264.171" y2="117.065" gradientUnits="userSpaceOnUse">
<stop stop-color="#FFE9DE"/>
<stop offset="0.44" stop-color="#FEDDCC"/>
<stop offset="1" stop-color="#FCCEB6"/>
</linearGradient>
<linearGradient id="paint37_linear_21_1300" x1="166.615" y1="138.01" x2="271.447" y2="138.01" gradientUnits="userSpaceOnUse">
<stop offset="0.01" stop-color="#FCD765"/>
<stop offset="1" stop-color="#F4B027"/>
</linearGradient>
<linearGradient id="paint38_linear_21_1300" x1="169.864" y1="129.514" x2="182.924" y2="129.514" gradientUnits="userSpaceOnUse">
<stop stop-color="#FFE9DE"/>
<stop offset="0.44" stop-color="#FEDDCC"/>
<stop offset="1" stop-color="#FCCEB6"/>
</linearGradient>
<linearGradient id="paint39_linear_21_1300" x1="268.059" y1="107.228" x2="283.496" y2="137.143" gradientUnits="userSpaceOnUse">
<stop offset="0.01" stop-color="#C7E4F9"/>
<stop offset="0.32" stop-color="#6DBAF9"/>
<stop offset="0.51" stop-color="#329FF9"/>
<stop offset="1" stop-color="#348BE2"/>
</linearGradient>
<linearGradient id="paint40_linear_21_1300" x1="228.346" y1="87.7241" x2="253.804" y2="99.3896" gradientUnits="userSpaceOnUse">
<stop offset="0.01" stop-color="#C7E4F9"/>
<stop offset="0.32" stop-color="#6DBAF9"/>
<stop offset="0.51" stop-color="#329FF9"/>
<stop offset="1" stop-color="#348BE2"/>
</linearGradient>
<linearGradient id="paint41_linear_21_1300" x1="283.431" y1="113.746" x2="306.585" y2="134.994" gradientUnits="userSpaceOnUse">
<stop offset="0.01" stop-color="#C7E4F9"/>
<stop offset="0.32" stop-color="#6DBAF9"/>
<stop offset="0.51" stop-color="#329FF9"/>
<stop offset="1" stop-color="#348BE2"/>
</linearGradient>
<linearGradient id="paint42_linear_21_1300" x1="116.602" y1="109.106" x2="244.663" y2="145.223" gradientUnits="userSpaceOnUse">
<stop offset="0.01" stop-color="#FCD765"/>
<stop offset="1" stop-color="#F4B027"/>
</linearGradient>
<linearGradient id="paint43_linear_21_1300" x1="274.301" y1="124.934" x2="275.024" y2="142.932" gradientUnits="userSpaceOnUse">
<stop stop-color="#FFE4D9"/>
<stop offset="1" stop-color="#FCB39F"/>
</linearGradient>
<linearGradient id="paint44_linear_21_1300" x1="285.391" y1="117.224" x2="286.216" y2="130.595" gradientUnits="userSpaceOnUse">
<stop stop-color="#FFE9DE"/>
<stop offset="0.44" stop-color="#FEDDCC"/>
<stop offset="1" stop-color="#FCCEB6"/>
</linearGradient>
</defs>
</svg>
