<svg width="400" height="345" viewBox="0 0 400 345" fill="none" xmlns="http://www.w3.org/2000/svg">
<path d="M0 184.222C0 207.419 19.6411 225.553 42.5483 221.899C85.8961 214.985 152.304 199.79 192.544 168.305C229.292 139.552 285.437 135.819 330.57 140.446C361.766 143.644 400 116.942 400 85.5834V40C400 17.9086 382.091 0 360 0H40C17.9086 0 0 17.9086 0 40V184.222Z" fill="url(#paint0_linear_21_1299)"/>
<path d="M307.91 308.167C308.072 308.298 308.254 308.408 308.388 308.559C313.149 313.567 317.91 318.575 322.662 323.583C322.71 323.633 322.757 323.683 322.805 323.733C323.015 323.974 323.092 324.255 322.977 324.566C322.853 324.887 322.604 325.048 322.279 325.058C321.973 325.068 321.658 325.058 321.352 325.058C319.134 325.058 316.916 325.058 314.707 325.058C314.574 325.058 314.44 325.058 314.268 325.058C314.268 325.249 314.268 325.399 314.268 325.55C314.268 331.662 314.268 337.784 314.268 343.896C314.268 344.779 314.057 345 313.216 345C309.506 345 305.787 345 302.078 345C301.342 345 301.112 344.759 301.112 343.996C301.112 337.854 301.112 331.722 301.112 325.58V325.068H300.692C298.244 325.068 295.806 325.068 293.359 325.068C293.244 325.068 293.129 325.068 293.015 325.058C292.422 324.958 292.173 324.295 292.546 323.804C292.623 323.703 292.718 323.613 292.804 323.513C297.498 318.585 302.183 313.657 306.877 308.729C307.069 308.529 307.279 308.358 307.489 308.167H307.9H307.91Z" fill="url(#paint1_linear_21_1299)"/>
<path d="M318.89 200.125C319.089 200.29 319.307 200.436 319.477 200.622C325.262 206.967 331.037 213.312 336.812 219.657C336.868 219.72 336.935 219.782 336.991 219.854C337.247 220.155 337.342 220.507 337.2 220.901C337.048 221.316 336.745 221.513 336.357 221.524C335.978 221.534 335.609 221.524 335.231 221.524C332.542 221.524 329.853 221.524 327.155 221.524C326.994 221.524 326.833 221.524 326.616 221.524C326.616 221.762 326.616 221.959 326.616 222.146C326.616 229.89 326.616 237.635 326.616 245.38C326.616 246.499 326.36 246.779 325.338 246.779C320.831 246.779 316.325 246.779 311.819 246.779C310.929 246.779 310.645 246.479 310.645 245.504C310.645 237.728 310.645 229.952 310.645 222.177V221.524H310.133C307.17 221.524 304.198 221.524 301.235 221.524C301.092 221.524 300.95 221.524 300.818 221.513C300.098 221.389 299.796 220.549 300.25 219.927C300.345 219.792 300.458 219.678 300.562 219.564C306.261 213.323 311.951 207.081 317.65 200.84C317.878 200.591 318.143 200.363 318.389 200.125H318.89Z" fill="url(#paint2_linear_21_1299)"/>
<path opacity="0.26" d="M256.165 135.064C256.536 135.369 256.954 135.633 257.287 135.989C268.336 147.833 279.374 159.688 290.423 171.552C290.537 171.674 290.651 171.786 290.756 171.918C291.241 172.488 291.421 173.139 291.145 173.882C290.86 174.645 290.29 175.011 289.529 175.042C288.816 175.062 288.093 175.042 287.38 175.042C282.236 175.042 277.093 175.042 271.949 175.042C271.635 175.042 271.321 175.042 270.922 175.042C270.922 175.49 270.922 175.846 270.922 176.202C270.922 190.671 270.922 205.14 270.922 219.609C270.922 221.695 270.427 222.224 268.478 222.224C259.864 222.224 251.25 222.224 242.626 222.224C240.924 222.224 240.382 221.654 240.382 219.843C240.382 205.313 240.382 190.793 240.382 176.263V175.042H239.402C233.726 175.042 228.059 175.042 222.383 175.042C222.117 175.042 221.851 175.062 221.594 175.011C220.225 174.787 219.645 173.2 220.5 172.04C220.681 171.796 220.9 171.582 221.099 171.358C231.986 159.698 242.873 148.037 253.769 136.386C254.216 135.908 254.71 135.501 255.186 135.053H256.137L256.165 135.064Z" fill="url(#paint3_linear_21_1299)"/>
<path opacity="0.26" d="M67.0162 286.068C67.1885 286.212 67.3799 286.336 67.533 286.501C72.6343 292.009 77.7355 297.517 82.8272 303.035C82.875 303.087 82.9324 303.149 82.9803 303.2C83.21 303.468 83.2866 303.768 83.1621 304.108C83.0281 304.459 82.7697 304.634 82.4156 304.644C82.0902 304.655 81.7552 304.644 81.4203 304.644C79.0467 304.644 76.6731 304.644 74.2996 304.644C74.156 304.644 74.0124 304.644 73.8306 304.644C73.8306 304.851 73.8306 305.016 73.8306 305.181C73.8306 311.906 73.8306 318.631 73.8306 325.366C73.8306 326.336 73.6009 326.584 72.7012 326.584C68.7198 326.584 64.7479 326.584 60.7665 326.584C59.9816 326.584 59.7328 326.315 59.7328 325.48C59.7328 318.724 59.7328 311.978 59.7328 305.222V304.655H59.283C56.6606 304.655 54.0478 304.655 51.4254 304.655C51.3009 304.655 51.1765 304.655 51.0617 304.644C50.43 304.541 50.162 303.798 50.5544 303.262C50.6405 303.149 50.7363 303.045 50.832 302.942C55.8566 297.527 60.8813 292.102 65.9155 286.686C66.1165 286.47 66.3462 286.274 66.5664 286.068H67.0066H67.0162Z" fill="url(#paint4_linear_21_1299)"/>
<path d="M113.326 240.017C112.625 240.802 111.692 244.324 111.692 244.324C111.692 244.324 110.69 240.878 109.99 240.093C109.29 239.308 106.217 238.185 106.217 238.185C106.217 238.185 109.28 237.051 109.98 236.266C110.681 235.481 111.692 232.046 111.692 232.046C111.692 232.046 112.655 235.546 113.355 236.321C114.055 237.095 117.167 238.185 117.167 238.185C117.167 238.185 114.016 239.232 113.326 240.017Z" fill="white"/>
<path d="M17.5818 246.595C16.7524 247.479 15.6464 251.445 15.6464 251.445C15.6464 251.445 14.4598 247.565 13.6304 246.681C12.8009 245.797 9.16058 244.533 9.16058 244.533C9.16058 244.533 12.7894 243.256 13.6189 242.372C14.4483 241.488 15.6464 237.62 15.6464 237.62C15.6464 237.62 16.7869 241.561 17.6164 242.433C18.4458 243.305 22.1323 244.533 22.1323 244.533C22.1323 244.533 18.3997 245.711 17.5818 246.595Z" fill="white"/>
<path d="M347.331 157.819C346.774 158.365 346.026 160.836 346.026 160.836C346.026 160.836 345.227 158.425 344.66 157.879C344.094 157.333 341.646 156.539 341.646 156.539C341.646 156.539 344.094 155.745 344.66 155.199C345.227 154.654 346.026 152.242 346.026 152.242C346.026 152.242 346.795 154.693 347.351 155.239C347.907 155.785 350.406 156.539 350.406 156.539C350.406 156.539 347.887 157.274 347.331 157.819Z" fill="white"/>
<path d="M328.672 119.706C328.038 120.382 327.186 123.439 327.186 123.439C327.186 123.439 326.275 120.455 325.63 119.78C324.985 119.105 322.197 118.123 322.197 118.123C322.197 118.123 324.985 117.14 325.63 116.465C326.275 115.79 327.186 112.806 327.186 112.806C327.186 112.806 328.061 115.839 328.695 116.514C329.328 117.189 332.174 118.123 332.174 118.123C332.174 118.123 329.305 119.031 328.672 119.706Z" fill="white"/>
<path d="M371.53 56.3909C370.746 57.2258 369.698 61.0073 369.698 61.0073C369.698 61.0073 368.569 57.324 367.786 56.4892C367.002 55.6543 363.546 54.4511 363.546 54.4511C363.546 54.4511 366.991 53.2356 367.786 52.4007C368.58 51.5659 369.709 47.8826 369.709 47.8826C369.709 47.8826 370.792 51.615 371.576 52.4621C372.359 53.3093 375.873 54.4511 375.873 54.4511C375.873 54.4511 372.336 55.5683 371.541 56.4032L371.53 56.3909Z" fill="url(#paint5_linear_21_1299)"/>
<path d="M186.49 106.569C185.28 107.859 183.679 113.641 183.679 113.641C183.679 113.641 181.951 107.981 180.742 106.704C179.532 105.415 174.233 103.574 174.233 103.574C174.233 103.574 179.52 101.707 180.73 100.431C181.94 99.1415 183.679 93.5061 183.679 93.5061C183.679 93.5061 185.338 99.2397 186.548 100.529C187.757 101.818 193.137 103.586 193.137 103.586C193.137 103.586 187.7 105.305 186.502 106.582L186.49 106.569Z" fill="url(#paint6_linear_21_1299)"/>
<path opacity="0.26" d="M399.682 92.7049C399.682 92.7049 203.31 80.3812 111.81 120.587C24.3988 158.998 12.9973 178.025 1.05646 178.025C-8.77716 178.025 52.5074 116.373 82.4472 95.4498C101.186 82.3517 216.518 1.67287 399.669 41.7702V92.7049H399.682Z" fill="url(#paint7_linear_21_1299)"/>
<path d="M62.7292 129.946C75.0023 129.946 84.9515 119.343 84.9515 106.262C84.9515 93.1825 75.0023 82.579 62.7292 82.579C50.4561 82.579 40.5068 93.1825 40.5068 106.262C40.5068 119.343 50.4561 129.946 62.7292 129.946Z" fill="url(#paint8_linear_21_1299)"/>
<path d="M65.9088 129.111C65.4019 128.964 63.9849 129.136 63.3743 129C62.7638 128.865 61.8652 128.141 60.7017 127.601C59.5381 127.061 57.8101 127.466 56.9691 126.889C56.1167 126.299 56.8079 125.943 55.771 124.716C54.7342 123.488 54.1006 123.451 53.8241 123.488C53.5477 123.525 52.4187 121.659 52.9601 121.18C53.5016 120.701 53.6168 119.743 53.5131 118.957C53.4094 118.172 52.9947 117.889 52.3265 117.337C51.6468 116.784 52.1998 116.011 52.868 115.065C53.5361 114.12 53.179 113.482 52.7758 112.585C52.3726 111.689 51.7851 112.18 51.3128 111.763C50.8404 111.345 49.1585 107.453 52.9025 105.354C56.6466 103.254 54.1697 98.0487 54.1697 98.0487C54.1697 98.0487 53.5937 97.5331 53.5822 97.263C53.5707 96.9928 54.7112 96.6 54.7112 96.6C54.7112 96.6 55.2296 96.2685 55.3794 95.9493C55.5291 95.63 55.3563 95.3845 54.8034 95.3108C54.2619 95.2371 54.5614 94.746 55.0222 94.1076C55.483 93.4692 56.301 93.5183 56.7848 92.8062C57.2802 92.0818 58.1212 90.8663 58.2018 90.2279C58.2824 89.5895 58.1672 88.6686 58.5704 88.3617C58.9736 88.0548 59.4921 87.932 59.8377 87.6496C60.1717 87.3795 59.6533 87.1585 59.4805 86.8516C59.2962 86.5569 59.5727 86.5078 59.6764 86.3973C59.7801 86.2868 60.3445 86.4955 60.4943 86.3727C60.6441 86.25 60.5865 85.8571 60.3561 85.6484C60.1141 85.4396 59.469 85.3291 59.4114 85.1695C59.3423 85.0099 59.5381 84.6784 59.8953 84.3469C60.2524 84.0154 60.886 85.6729 61.6348 84.838C62.3836 84.0154 65.3212 82.7754 65.3904 82.7509C64.8604 82.6895 64.3305 82.6281 63.7891 82.6035C51.5316 81.9896 41.1174 92.0818 40.5414 105.145C39.9654 118.209 49.435 129.307 61.6924 129.921C64.9641 130.081 68.1091 129.479 70.9661 128.264C69.0538 128.878 66.4272 129.258 65.9318 129.111H65.9088Z" fill="url(#paint9_linear_21_1299)"/>
<path d="M84.8594 104.126L65.0563 100.541L41.0598 101.045C40.7833 102.371 40.599 103.746 40.5299 105.158C40.4953 106.005 40.4953 106.827 40.5414 107.65C52.6376 100.639 84.6866 104.114 84.8594 104.138V104.126Z" fill="#073F82"/>
<path d="M63.0288 99.301C46.0711 98.4539 20.7268 99.7553 20.4158 106.852C20.2084 111.444 30.7148 114.673 42.7418 116.612C42.3617 115.79 42.0391 114.93 41.7511 114.046C29.0559 111.849 22.5931 108.718 22.6738 106.962C22.789 104.433 36.7053 100.394 62.9251 101.707C89.145 103.021 102.647 108.423 102.531 110.965C102.451 112.72 95.746 115.188 82.9356 116.109C82.567 116.956 82.1522 117.766 81.7029 118.565C93.8567 117.84 104.593 115.679 104.801 111.075C105.112 103.991 79.998 100.148 63.0403 99.301H63.0288Z" fill="url(#paint10_linear_21_1299)"/>
<path d="M282.739 138.491C291.901 138.491 299.328 130.576 299.328 120.811C299.328 111.047 291.901 103.132 282.739 103.132C273.577 103.132 266.15 111.047 266.15 120.811C266.15 130.576 273.577 138.491 282.739 138.491Z" fill="url(#paint11_linear_21_1299)"/>
<path d="M290.227 136.085C289.835 136.109 288.879 136.6 288.418 136.674C287.958 136.735 287.151 136.465 286.218 136.379C285.285 136.293 284.145 137.042 283.419 136.846C282.693 136.649 283.085 136.22 282.082 135.618C281.069 135.016 280.608 135.164 280.424 135.262C280.239 135.36 279.007 134.341 279.283 133.862C279.56 133.384 279.41 132.671 279.156 132.156C278.903 131.64 278.546 131.53 277.947 131.321C277.348 131.112 277.555 130.425 277.808 129.578C278.062 128.73 277.659 128.374 277.175 127.859C276.691 127.343 276.391 127.834 275.954 127.65C275.516 127.466 273.442 125.17 275.608 122.714C277.762 120.259 274.825 117.226 274.825 117.226C274.825 117.226 274.295 117.018 274.226 116.833C274.157 116.649 274.871 116.072 274.871 116.072C274.871 116.072 275.159 115.704 275.193 115.446C275.228 115.188 275.044 115.053 274.64 115.151C274.237 115.25 274.341 114.82 274.514 114.243C274.687 113.666 275.286 113.494 275.458 112.855C275.643 112.217 275.954 111.137 275.862 110.67C275.769 110.203 275.47 109.577 275.689 109.258C275.908 108.939 276.242 108.706 276.415 108.423C276.587 108.141 276.173 108.116 275.977 107.957C275.781 107.797 275.977 107.699 276.011 107.588C276.046 107.478 276.507 107.49 276.576 107.355C276.656 107.232 276.53 106.974 276.311 106.876C276.092 106.79 275.62 106.876 275.527 106.79C275.447 106.692 275.504 106.41 275.677 106.09C275.85 105.771 276.679 106.766 277.014 105.98C277.348 105.207 279.133 103.561 279.179 103.524C278.788 103.61 278.407 103.721 278.016 103.831C269.226 106.594 264.203 116.428 266.795 125.796C269.387 135.164 278.615 140.517 287.405 137.754C289.755 137.018 291.828 135.778 293.556 134.169C292.347 135.102 290.584 136.048 290.193 136.072L290.227 136.085Z" fill="url(#paint12_linear_21_1299)"/>
<path d="M297.865 113.531L283.073 116.158L266.265 122.763C266.369 123.77 266.553 124.789 266.841 125.796C267.003 126.398 267.198 126.987 267.429 127.552C274.352 119.449 297.75 113.555 297.877 113.518L297.865 113.531Z" fill="#073F82"/>
<path d="M281.357 115.827C269.203 119.645 251.623 127.183 253.029 132.254C253.939 135.544 262.083 135.09 271.012 133.322C270.551 132.831 270.125 132.315 269.721 131.775C260.263 133.531 254.987 133.003 254.641 131.751C254.135 129.934 263.028 123.463 281.817 117.558C300.607 111.652 311.378 111.947 311.874 113.764C312.219 115.016 308.06 118.515 299.236 122.506C299.178 123.205 299.063 123.881 298.925 124.556C307.323 120.885 314.408 116.551 313.498 113.261C312.092 108.178 293.499 112.021 281.345 115.839L281.357 115.827Z" fill="url(#paint13_linear_21_1299)"/>
<path d="M199.528 173.114H80.7971C74.8788 173.114 70.0812 178.208 70.0812 184.492V262.412C70.0812 268.696 74.8788 273.79 80.7971 273.79H199.528C205.446 273.79 210.244 268.696 210.244 262.412V184.492C210.244 178.208 205.446 173.114 199.528 173.114Z" fill="white"/>
<path d="M167.376 344.622C210.919 344.622 246.218 335.827 246.218 324.978C246.218 314.129 210.919 305.334 167.376 305.334C123.833 305.334 88.535 314.129 88.535 324.978C88.535 335.827 123.833 344.622 167.376 344.622Z" fill="url(#paint14_linear_21_1299)"/>
<path d="M198.198 182.936C199.408 182.936 200.388 181.837 200.388 180.48C200.388 179.124 199.408 178.025 198.198 178.025C196.989 178.025 196.008 179.124 196.008 180.48C196.008 181.837 196.989 182.936 198.198 182.936Z" fill="url(#paint15_linear_21_1299)"/>
<path d="M189.438 182.936C190.648 182.936 191.628 181.837 191.628 180.48C191.628 179.124 190.648 178.025 189.438 178.025C188.229 178.025 187.248 179.124 187.248 180.48C187.248 181.837 188.229 182.936 189.438 182.936Z" fill="url(#paint16_linear_21_1299)"/>
<path d="M181.773 182.936C182.983 182.936 183.963 181.837 183.963 180.48C183.963 179.124 182.983 178.025 181.773 178.025C180.564 178.025 179.583 179.124 179.583 180.48C179.583 181.837 180.564 182.936 181.773 182.936Z" fill="url(#paint17_linear_21_1299)"/>
<path d="M171.375 178.025H81.5743C80.6697 178.025 79.9364 178.811 79.9364 179.781V181.18C79.9364 182.15 80.6697 182.936 81.5743 182.936H171.375C172.28 182.936 173.013 182.15 173.013 181.18V179.781C173.013 178.811 172.28 178.025 171.375 178.025Z" fill="#C7E4F9"/>
<path d="M147.281 189.075H81.5785C80.6716 189.075 79.9364 189.864 79.9364 190.837V240.106C79.9364 241.079 80.6716 241.868 81.5785 241.868H147.281C148.187 241.868 148.923 241.079 148.923 240.106V190.837C148.923 189.864 148.187 189.075 147.281 189.075Z" fill="#C7E4F9"/>
<path d="M147.281 246.779H81.5785C80.6716 246.779 79.9364 247.534 79.9364 248.466V265.965C79.9364 266.896 80.6716 267.651 81.5785 267.651H147.281C148.187 267.651 148.923 266.896 148.923 265.965V248.466C148.923 247.534 148.187 246.779 147.281 246.779Z" fill="#C7E4F9"/>
<path d="M189.993 223.452H159.318C158.415 223.452 157.683 224.257 157.683 225.251V240.07C157.683 241.063 158.415 241.868 159.318 241.868H189.993C190.896 241.868 191.628 241.063 191.628 240.07V225.251C191.628 224.257 190.896 223.452 189.993 223.452Z" fill="#C7E4F9"/>
<path d="M198.761 191.53H159.31C158.411 191.53 157.683 192.374 157.683 193.416V194.556C157.683 195.597 158.411 196.441 159.31 196.441H198.761C199.66 196.441 200.388 195.597 200.388 194.556V193.416C200.388 192.374 199.66 191.53 198.761 191.53Z" fill="#C7E4F9"/>
<path d="M198.761 198.897H159.31C158.411 198.897 157.683 199.741 157.683 200.782V201.922C157.683 202.964 158.411 203.808 159.31 203.808H198.761C199.66 203.808 200.388 202.964 200.388 201.922V200.782C200.388 199.741 199.66 198.897 198.761 198.897Z" fill="#C7E4F9"/>
<path d="M198.761 207.491H159.31C158.411 207.491 157.683 208.335 157.683 209.377V210.517C157.683 211.558 158.411 212.402 159.31 212.402H198.761C199.66 212.402 200.388 211.558 200.388 210.517V209.377C200.388 208.335 199.66 207.491 198.761 207.491Z" fill="#C7E4F9"/>
<path d="M198.761 214.858H159.31C158.411 214.858 157.683 215.702 157.683 216.743V217.883C157.683 218.925 158.411 219.769 159.31 219.769H198.761C199.66 219.769 200.388 218.925 200.388 217.883V216.743C200.388 215.702 199.66 214.858 198.761 214.858Z" fill="#C7E4F9"/>
<path d="M263.256 324.128C261.997 323.512 260.617 323.081 259.496 322.229C257.468 320.678 256.366 318.389 256.301 315.627C256.227 312.68 256.199 309.723 256.301 306.776C256.467 301.971 260.172 298.274 264.627 298.346C268.943 298.408 272.518 302.238 272.62 306.992C272.676 309.733 272.667 312.474 272.629 315.216C272.565 319.641 269.851 323.132 265.887 323.974C265.757 324.005 265.637 324.077 265.516 324.128H263.256ZM260.997 311.17C260.997 312.485 260.978 313.799 260.997 315.103C261.034 317.218 262.478 318.82 264.377 318.871C266.22 318.922 267.832 317.413 267.887 315.349C267.971 312.608 267.971 309.866 267.887 307.125C267.832 305.072 266.239 303.542 264.396 303.572C262.506 303.603 261.024 305.215 260.987 307.32C260.969 308.604 260.987 309.887 260.987 311.17H260.997Z" fill="url(#paint18_linear_21_1299)"/>
<path d="M284.695 279.362C284.578 281.323 284.685 283.325 284.304 285.225C283.394 289.753 279.549 292.526 275.009 292.177C270.988 291.869 267.564 288.347 267.31 283.89C267.124 280.635 267.134 277.329 267.417 274.073C267.799 269.709 271.654 266.413 275.929 266.423C280.175 266.423 283.912 269.679 284.421 274.012C284.627 275.768 284.45 277.575 284.45 279.362C284.539 279.362 284.617 279.362 284.705 279.362H284.695ZM272.26 279.29C272.26 280.543 272.241 281.795 272.26 283.048C272.299 285.317 273.806 286.95 275.86 286.971C277.925 286.991 279.51 285.41 279.549 283.151C279.598 280.594 279.598 278.027 279.549 275.46C279.5 273.242 277.964 271.691 275.919 271.681C273.845 271.681 272.319 273.273 272.27 275.532C272.241 276.784 272.27 278.037 272.27 279.29H272.26Z" fill="url(#paint19_linear_21_1299)"/>
<path d="M323.031 279.334C322.92 281.296 323.031 283.298 322.673 285.198C321.829 289.726 318.245 292.509 313.981 292.18C310.186 291.893 306.949 288.309 306.729 283.832C306.573 280.659 306.528 277.445 306.812 274.282C307.243 269.487 310.993 266.181 315.256 266.437C319.482 266.694 322.783 270.493 322.911 275.309C322.948 276.644 322.911 277.989 322.911 279.334C322.948 279.334 322.985 279.334 323.012 279.334H323.031ZM311.378 279.314C311.378 280.597 311.35 281.881 311.378 283.154C311.433 285.362 312.863 286.954 314.752 286.974C316.686 286.995 318.162 285.403 318.199 283.144C318.245 280.608 318.235 278.082 318.199 275.545C318.162 273.266 316.732 271.685 314.779 271.685C312.835 271.685 311.414 273.276 311.368 275.545C311.341 276.798 311.368 278.051 311.368 279.304L311.378 279.314Z" fill="url(#paint20_linear_21_1299)"/>
<path d="M306.614 246.186C306.715 244.226 306.614 242.225 306.963 240.326C307.77 235.871 311.394 232.998 315.486 233.295C319.431 233.583 322.688 237.093 322.918 241.64C323.083 244.903 323.083 248.198 322.808 251.452C322.432 255.844 318.853 259.067 314.807 259.057C310.807 259.047 307.33 255.793 306.862 251.462C306.679 249.738 306.835 247.962 306.835 246.207C306.761 246.207 306.688 246.207 306.605 246.207L306.614 246.186ZM318.275 246.207C318.275 244.985 318.294 243.764 318.275 242.543C318.239 240.162 316.817 238.509 314.826 238.53C312.862 238.55 311.449 240.182 311.431 242.512C311.413 244.955 311.413 247.397 311.431 249.84C311.449 252.16 312.881 253.812 314.835 253.822C316.78 253.833 318.23 252.191 318.275 249.871C318.303 248.65 318.275 247.428 318.275 246.207Z" fill="url(#paint21_linear_21_1299)"/>
<path d="M283.76 246.172C283.76 244.416 283.573 242.64 283.8 240.916C284.422 236.193 288.46 232.96 293.092 233.298C297.496 233.617 301.031 237.497 301.129 242.106C301.159 243.564 300.201 244.765 298.878 244.909C297.486 245.053 296.33 244.098 296.093 242.599C296.024 242.158 296.034 241.706 295.916 241.275C295.452 239.54 293.872 238.411 292.144 238.534C290.337 238.667 288.836 239.992 288.757 241.839C288.638 244.724 288.628 247.619 288.757 250.504C288.846 252.485 290.356 253.696 292.479 253.83C294.316 253.953 295.461 255.729 294.76 257.433C294.326 258.49 293.526 259.034 292.4 259.055C287.759 259.158 283.79 255.246 283.632 250.38C283.582 248.984 283.632 247.578 283.632 246.182H283.75L283.76 246.172Z" fill="url(#paint22_linear_21_1299)"/>
<path d="M273.092 242.422C272.546 243.038 272.008 243.665 271.452 244.26C270.34 245.441 268.841 245.482 267.87 244.384C266.908 243.295 266.956 241.734 268.03 240.554C269.953 238.438 271.905 236.333 273.837 234.228C274.62 233.366 275.534 233.017 276.599 233.479C277.655 233.941 278.126 234.886 278.126 236.087C278.126 242.823 278.145 249.569 278.126 256.305C278.126 257.958 277.061 259.077 275.675 259.057C274.299 259.036 273.3 257.876 273.3 256.223C273.29 251.992 273.3 247.752 273.3 243.521C273.3 243.193 273.3 242.874 273.3 242.546C273.234 242.505 273.177 242.463 273.111 242.422H273.092Z" fill="url(#paint23_linear_21_1299)"/>
<path d="M294.999 275.57C294.452 276.186 293.915 276.801 293.359 277.407C292.238 278.608 290.777 278.649 289.778 277.551C288.808 276.473 288.855 274.903 289.929 273.722C291.851 271.608 293.802 269.504 295.734 267.39C296.516 266.528 297.421 266.158 298.485 266.631C299.579 267.113 300.031 268.078 300.031 269.33C300.031 276.011 300.04 282.682 300.031 289.363C300.031 291.088 299.013 292.217 297.581 292.206C296.167 292.186 295.197 291.026 295.187 289.292C295.178 285.094 295.187 280.886 295.187 276.688C295.187 276.36 295.187 276.032 295.187 275.713C295.121 275.672 295.055 275.631 294.999 275.58V275.57Z" fill="url(#paint24_linear_21_1299)"/>
<path d="M256.625 275.571C256.06 276.218 255.523 276.886 254.94 277.502C253.895 278.6 252.455 278.621 251.485 277.584C250.516 276.536 250.506 274.955 251.523 273.826C253.5 271.638 255.495 269.472 257.491 267.305C258.263 266.474 259.166 266.176 260.192 266.648C261.209 267.11 261.699 268.014 261.699 269.184C261.708 275.951 261.717 282.718 261.699 289.485C261.699 291.117 260.625 292.237 259.232 292.206C257.849 292.175 256.879 291.035 256.879 289.351C256.86 285.121 256.879 280.88 256.879 276.649C256.879 276.331 256.879 276.002 256.879 275.684L256.644 275.561L256.625 275.571Z" fill="url(#paint25_linear_21_1299)"/>
<path d="M285.076 307.041C284.539 307.637 284.021 308.262 283.466 308.829C282.411 309.913 280.914 309.952 279.953 308.956C278.964 307.94 278.983 306.425 280.047 305.312C281.987 303.28 283.946 301.267 285.895 299.235C286.686 298.414 287.6 298.102 288.654 298.551C289.747 299.01 290.18 299.938 290.18 301.12C290.18 305.429 290.18 309.737 290.18 314.036C290.18 315.658 289.172 316.771 287.76 316.762C286.357 316.762 285.368 315.658 285.358 314.016C285.34 312.033 285.358 310.05 285.358 308.067C285.358 307.764 285.358 307.461 285.358 307.158C285.274 307.119 285.189 307.07 285.104 307.031L285.076 307.041Z" fill="url(#paint26_linear_21_1299)"/>
<path d="M216.306 262.119H194.292V287.02H216.306V262.119Z" fill="url(#paint27_linear_21_1299)"/>
<path d="M201.091 305.02C201.31 305.02 204.914 310.178 209.678 310.097C214.442 310.016 227.718 301.016 235.23 315.023C235.23 315.023 238.264 321.124 233.062 325.836C227.87 330.559 216.896 325.33 210.762 325.015C204.628 324.711 194.377 325.786 190.764 325.167C187.16 324.549 186.722 315.327 186.722 315.327L192.789 305.02H201.091Z" fill="url(#paint28_linear_21_1299)"/>
<path d="M228.849 315.884C226.282 310.624 219.178 311.465 214.537 312.408C209.897 313.35 208.185 309.945 208.185 309.945C206.112 309.509 204.334 308.212 203.069 307.047C200.492 309.003 196.26 312.337 195.813 313.35C195.271 314.587 191.867 321.58 190.83 325.178C194.491 325.776 204.657 324.711 210.762 325.015C214.319 325.198 219.511 327.022 224.247 327.62C229.524 327.367 231.398 321.144 228.84 315.884H228.849Z" fill="url(#paint29_linear_21_1299)"/>
<path d="M117.579 307.361C117.579 307.361 104.532 302.395 102.059 312.134C99.5867 321.874 103.105 327.357 109.819 325.988C116.533 324.62 121.202 323.708 126.147 324.215C131.092 324.722 135.666 323.303 136.902 321.478C138.138 319.654 117.569 307.371 117.569 307.371L117.579 307.361Z" fill="url(#paint30_linear_21_1299)"/>
<path d="M123.56 311.05L119.956 310.249C119.956 310.249 112.253 308.405 109.686 312.722C108.307 315.043 106.329 322.502 108.602 323.769C110.874 325.036 114.868 324.985 114.868 324.985C119.081 324.215 122.543 323.83 126.147 324.205C131.101 324.711 135.666 323.292 136.902 321.468C137.701 320.293 129.523 314.82 123.551 311.05H123.56Z" fill="url(#paint31_linear_21_1299)"/>
<path d="M155.521 199.091C155.521 199.091 140.592 202.405 138.043 206.105C134.705 210.949 123.018 227.6 122.752 240.238C122.485 252.876 191.534 269.112 191.534 269.112L196.536 271.757C196.536 271.757 207.291 258.278 215.793 273.136L218.075 274.97C218.075 274.97 216.049 238.657 213.529 230.925C211.019 223.192 199.988 205.142 195.376 203.034C186.532 198.97 182.747 198.352 176.176 199.112C169.605 199.862 155.502 199.112 155.502 199.112L155.521 199.091Z" fill="url(#paint32_linear_21_1299)"/>
<path d="M147.058 236.823C147.058 236.397 147.847 221.996 146.402 222.188C144.956 222.381 140.344 234.441 140.611 236.823C140.877 239.205 147.058 236.823 147.058 236.823Z" fill="url(#paint33_linear_21_1299)"/>
<path d="M209.592 261.633C208.936 262.545 212.75 264.369 211.038 265.21C209.326 266.051 206.892 259.525 204.258 259.525C201.623 259.525 201.034 262.748 199.912 263.386C198.79 264.025 196.222 263.741 196.755 262.403C197.287 261.065 194.653 236.965 194.653 236.965C194.653 236.965 199.655 241.576 200.444 238.911C201.234 236.245 195.842 229.09 194.653 226.85C193.464 224.611 193.731 219.138 192.551 220.395C191.372 221.651 192.028 239.894 192.028 239.894L192.951 264.724L195.024 270.947L196.555 271.757C196.555 271.757 207.187 258.44 215.669 272.892L218.094 274.96C218.094 274.96 217.904 271.484 217.561 266.457C215.146 264.633 210.106 260.944 209.611 261.633H209.592Z" fill="url(#paint34_linear_21_1299)"/>
<path d="M119.233 220.597C119.233 220.597 118.197 215.915 117.759 214.699C117.331 213.483 116.01 211.172 118.14 209.854C120.27 208.547 124.302 205.79 124.815 206.125C125.329 206.459 126.508 208.334 124.254 210.209C122.001 212.084 120.355 212.5 120.555 213.442C120.755 214.395 122.229 214.76 122.229 214.76L119.243 220.597H119.233Z" fill="url(#paint35_linear_21_1299)"/>
<path d="M136.217 236.002C136.455 231.938 137.054 231.411 137.197 229.506C137.292 228.148 137.511 225.3 136.807 223.101C136.807 223.101 136.464 221.58 135.656 220.03C135.694 219.604 135.637 219.148 135.219 218.976C135.143 218.945 135.057 218.915 134.962 218.885C134.62 218.408 134.239 217.962 133.792 217.618C134.363 217.466 134.876 217.162 135.095 216.584C135.713 214.993 135.076 214.648 133.003 214.101C130.93 213.544 128.096 212.378 126.803 212.135C125.51 211.892 124.283 210.888 122.685 213.787C121.088 216.695 118.387 220.293 118.349 221.266C118.311 222.239 119.309 223.212 119.186 224.043C119.062 224.864 121.982 227.854 122.752 228.31C122.752 228.31 125.966 231.796 127.307 232.992C128.648 234.188 128.343 236.174 128.058 237.583C127.773 238.992 128.001 243.39 128.324 244.394C128.324 244.394 126.327 244.566 123.503 243.907C125.995 252.238 125.015 256.434 124.511 259.606C123.988 262.879 124.739 271.453 130.302 273.561C130.302 273.561 133.735 274.869 138.034 271.909C138.034 271.909 139.869 269.396 140.24 260.934C140.611 252.471 135.96 240.076 136.189 236.012L136.217 236.002ZM133.193 218.449C133.298 218.479 133.412 218.51 133.526 218.53C133.412 218.499 133.307 218.479 133.193 218.449ZM132.233 218.135C132.347 218.185 132.461 218.226 132.594 218.276C132.47 218.236 132.347 218.185 132.233 218.135ZM132.68 218.307C132.803 218.347 132.936 218.388 133.07 218.418C132.936 218.378 132.813 218.347 132.68 218.307ZM131.814 217.739C131.814 217.739 131.814 217.739 131.805 217.739C131.805 217.739 131.805 217.739 131.814 217.739ZM131.672 217.719C131.672 217.719 131.672 217.719 131.662 217.719C131.662 217.719 131.662 217.719 131.672 217.719ZM131.843 217.922C131.748 217.861 131.672 217.79 131.615 217.709C131.672 217.78 131.748 217.851 131.843 217.922ZM132.176 218.114C132.062 218.064 131.957 218.003 131.871 217.942C131.957 218.003 132.062 218.053 132.176 218.114Z" fill="url(#paint36_linear_21_1299)"/>
<path d="M131.624 217.699C132.1 218.347 133.992 218.58 134.971 218.884C134.629 218.408 134.249 217.962 133.802 217.618C132.794 217.891 131.624 217.699 131.624 217.699Z" fill="url(#paint37_linear_21_1299)"/>
<path d="M135.457 220.901C135.457 220.901 134.363 222.482 132.48 221.743C130.597 220.993 130.027 220.871 130.027 220.871C130.027 220.871 130.873 222.381 130.626 223.222C130.378 224.063 128.515 223.992 128.144 223.628C127.773 223.263 127.849 222.067 127.45 221.976C127.05 221.884 125.804 221.641 125.804 221.641C125.804 221.641 126.118 223.607 125.871 224.063C125.823 224.144 125.842 224.438 126.099 224.661C128.334 226.597 129.542 225.908 131.881 223.932C131.881 223.932 132.889 224.205 133.536 223.84C135.067 222.979 136.522 221.702 135.694 220.091C135.694 220.07 135.675 220.06 135.666 220.04C135.618 220.496 135.457 220.911 135.457 220.911V220.901Z" fill="url(#paint38_linear_21_1299)"/>
<path d="M120.812 295.158L141.086 271.311L185.572 280.919L198.21 288.145L181.891 308.344C181.891 308.344 143.987 311.435 141.875 309.742C139.764 308.05 120.812 295.148 120.812 295.148V295.158Z" fill="url(#paint39_linear_21_1299)"/>
<path d="M193.559 230.904H128.762C125.175 230.904 122.267 234.003 122.267 237.826V280.098C122.267 283.921 125.175 287.02 128.762 287.02H193.559C197.146 287.02 200.054 283.921 200.054 280.098V237.826C200.054 234.003 197.146 230.904 193.559 230.904Z" fill="url(#paint40_linear_21_1299)"/>
<path d="M200.054 281.274V272.163C193.464 274.636 180.427 281.892 171.497 287.03H194.663C197.639 287.03 200.064 284.456 200.064 281.284L200.054 281.274Z" fill="url(#paint41_linear_21_1299)"/>
<path d="M122.267 277.747V281.274C122.267 284.446 124.682 287.02 127.659 287.02H145.023C144.795 286.797 144.576 286.564 144.376 286.321C140.439 281.568 127.564 278.74 122.267 277.747Z" fill="url(#paint42_linear_21_1299)"/>
<path d="M149.207 305.972C149.207 305.972 174.816 290.942 177.869 288.693C180.921 286.443 205.361 268.656 216.877 273.663C228.393 278.669 223.562 293.851 221.337 298.199C217.685 305.354 199.132 313.877 199.132 313.877L149.207 305.962V305.972Z" fill="url(#paint43_linear_21_1299)"/>
<path d="M222.877 279.287C222.811 279.196 221.631 277.615 218.084 278.325C214.433 279.065 206.625 283.889 205.056 286.108C203.744 287.963 205.123 288.155 205.617 290C206.112 291.844 205.123 291.084 203.725 291.155C199.95 291.348 198.143 293.263 194.396 295.148C190.65 297.044 179.39 303.884 178.896 304.199C178.515 304.442 170.955 307.442 167.389 308.84L199.132 313.877C199.132 313.877 217.695 305.354 221.337 298.199C222.982 294.976 226.034 285.845 222.877 279.277V279.287Z" fill="url(#paint44_linear_21_1299)"/>
<path d="M100.509 292.817C100.509 292.817 99.8529 302.689 114.479 312.833C129.104 322.978 137.511 324.559 145.622 325.127C153.734 325.694 193.626 326.617 196.27 325.107C198.913 323.607 202.793 311.962 200.321 308.577C197.858 305.192 184.392 307.462 178.924 306.337C173.466 305.212 155.664 302.395 151.081 297.702C146.497 293.01 130.635 280.99 115.838 280.048C101.032 279.105 100.804 288.024 100.509 292.817Z" fill="url(#paint45_linear_21_1299)"/>
<path d="M190.735 306.601C193.693 307.432 191.924 310.502 191.819 313.867C191.724 317.232 167.275 316.269 163.719 316.127C157.794 315.884 145.945 311.04 137.786 306.692C130.492 302.81 123.047 300.043 120.802 298.087C118.568 296.121 118.035 292.898 116.723 292.473C115.41 292.047 117.246 298.361 115.277 297.945C113.309 297.53 115.41 290.79 113.832 288.966C112.253 287.142 107.774 289.524 106.196 295.989C105.273 299.76 106.586 304.219 107.841 307.29C109.6 309.084 111.768 310.938 114.469 312.813C129.095 322.958 137.501 324.539 145.613 325.107C153.715 325.674 193.616 326.596 196.26 325.086C198.904 323.586 202.784 311.942 200.311 308.557C199.075 306.864 195.09 306.59 190.726 306.59L190.735 306.601Z" fill="url(#paint46_linear_21_1299)"/>
<path d="M159.534 190.031C159.534 190.031 158.755 205.385 159.011 206.074C159.268 206.763 164.204 212.023 171.345 211.75C178.487 211.476 180.17 204.969 180.17 203.723C180.17 202.476 179.39 182.278 179.39 182.278L159.534 190.021V190.031Z" fill="url(#paint47_linear_21_1299)"/>
<path d="M151.413 181.001C151.413 181.001 148.95 179.997 148.171 182.065C147.391 184.132 149.825 190.163 151.185 191.095C152.545 192.027 153.058 191.561 153.058 191.561C153.058 191.561 157.927 203.196 158.954 204.676C159.962 206.135 164.498 209.469 169.557 208.537C174.616 207.604 178.734 202.081 179.609 199.598C180.484 197.105 180.684 188.916 180.684 188.916C180.684 188.916 182.243 188.815 183.118 184.558C183.993 180.302 182.823 179.997 180.684 179.268L174.455 166.609C174.455 166.609 163.062 163.812 162.777 163.812C162.492 163.812 150.605 166.609 150.605 166.609L149.34 170.349L151.413 181.001Z" fill="url(#paint48_linear_21_1299)"/>
<path d="M151.585 189.028C151.585 189.028 145.356 173.572 147.4 166.924C149.445 160.285 157.138 153.232 160.153 153.951C163.167 154.681 164.727 152.918 168.521 153.222C172.315 153.526 177.384 156.232 179.428 160.691C181.473 165.15 181.178 183.727 180.693 184.974C180.208 186.22 178.164 176.471 176.699 174.393C175.235 172.315 172.325 170.207 170.385 170.623C168.445 171.038 168.34 174.596 161.094 175.579C157.366 176.086 152.916 171.971 151.946 173.633C150.976 175.295 153.544 191.835 151.594 189.038L151.585 189.028Z" fill="#1A1244"/>
<defs>
<linearGradient id="paint0_linear_21_1299" x1="193.077" y1="253.669" x2="195.585" y2="-2.7153" gradientUnits="userSpaceOnUse">
<stop offset="0.01" stop-color="#C7E4F9"/>
<stop offset="0.5" stop-color="#348BE2"/>
<stop offset="0.99" stop-color="#0F53B7"/>
</linearGradient>
<linearGradient id="paint1_linear_21_1299" x1="307.107" y1="338.717" x2="310.667" y2="261.916" gradientUnits="userSpaceOnUse">
<stop stop-color="white"/>
<stop offset="1" stop-color="#329FF9"/>
</linearGradient>
<linearGradient id="paint2_linear_21_1299" x1="317.906" y1="238.817" x2="322.616" y2="141.554" gradientUnits="userSpaceOnUse">
<stop stop-color="white"/>
<stop offset="1" stop-color="#329FF9"/>
</linearGradient>
<linearGradient id="paint3_linear_21_1299" x1="254.283" y1="207.338" x2="262.872" y2="25.6299" gradientUnits="userSpaceOnUse">
<stop offset="0.01" stop-color="#C7E4F9"/>
<stop offset="0.99" stop-color="white" stop-opacity="0.1"/>
</linearGradient>
<linearGradient id="paint4_linear_21_1299" x1="66.1452" y1="319.673" x2="70.1681" y2="235.191" gradientUnits="userSpaceOnUse">
<stop offset="0.01" stop-color="#C7E4F9"/>
<stop offset="0.99" stop-color="white" stop-opacity="0.1"/>
</linearGradient>
<linearGradient id="paint5_linear_21_1299" x1="363.535" y1="54.4388" x2="375.861" y2="54.4388" gradientUnits="userSpaceOnUse">
<stop offset="0.01" stop-color="#FCD765"/>
<stop offset="1" stop-color="#F4B027"/>
</linearGradient>
<linearGradient id="paint6_linear_21_1299" x1="174.221" y1="103.574" x2="193.137" y2="103.574" gradientUnits="userSpaceOnUse">
<stop offset="0.01" stop-color="#FCD765"/>
<stop offset="1" stop-color="#F4B027"/>
</linearGradient>
<linearGradient id="paint7_linear_21_1299" x1="0.00285479" y1="104.356" x2="399.682" y2="104.356" gradientUnits="userSpaceOnUse">
<stop offset="0.01" stop-color="#C7E4F9"/>
<stop offset="0.99" stop-color="white" stop-opacity="0.1"/>
</linearGradient>
<linearGradient id="paint8_linear_21_1299" x1="96.448" y1="144.903" x2="35.4502" y2="83.372" gradientUnits="userSpaceOnUse">
<stop offset="0.01" stop-color="#FC5E92"/>
<stop offset="0.99" stop-color="#9B3CBA"/>
</linearGradient>
<linearGradient id="paint9_linear_21_1299" x1="89.688" y1="120.468" x2="50.7508" y2="103.238" gradientUnits="userSpaceOnUse">
<stop offset="0.01" stop-color="#FC5E92"/>
<stop offset="0.99" stop-color="#9B3CBA"/>
</linearGradient>
<linearGradient id="paint10_linear_21_1299" x1="21.474" y1="115.05" x2="103.975" y2="104.281" gradientUnits="userSpaceOnUse">
<stop offset="0.01" stop-color="#FCD765"/>
<stop offset="1" stop-color="#F4B027"/>
</linearGradient>
<linearGradient id="paint11_linear_21_1299" x1="315.419" y1="139.24" x2="258.66" y2="110.984" gradientUnits="userSpaceOnUse">
<stop offset="0.01" stop-color="#29D6A9"/>
<stop offset="0.99" stop-color="#138760"/>
</linearGradient>
<linearGradient id="paint12_linear_21_1299" x1="304.993" y1="123.831" x2="273.685" y2="120.681" gradientUnits="userSpaceOnUse">
<stop offset="0.01" stop-color="#29D6A9"/>
<stop offset="0.99" stop-color="#138760"/>
</linearGradient>
<linearGradient id="paint13_linear_21_1299" x1="252.959" y1="122.739" x2="313.602" y2="122.739" gradientUnits="userSpaceOnUse">
<stop offset="0.01" stop-color="#FCD765"/>
<stop offset="1" stop-color="#F4B027"/>
</linearGradient>
<linearGradient id="paint14_linear_21_1299" x1="170.395" y1="346.375" x2="160.276" y2="284.486" gradientUnits="userSpaceOnUse">
<stop offset="0.01" stop-color="#C7E4F9"/>
<stop offset="0.99" stop-color="white" stop-opacity="0.1"/>
</linearGradient>
<linearGradient id="paint15_linear_21_1299" x1="196.017" y1="180.48" x2="200.388" y2="180.48" gradientUnits="userSpaceOnUse">
<stop offset="0.01" stop-color="#FCD765"/>
<stop offset="1" stop-color="#F4B027"/>
</linearGradient>
<linearGradient id="paint16_linear_21_1299" x1="187.248" y1="180.48" x2="191.619" y2="180.48" gradientUnits="userSpaceOnUse">
<stop offset="0.01" stop-color="#29D6A9"/>
<stop offset="0.99" stop-color="#138760"/>
</linearGradient>
<linearGradient id="paint17_linear_21_1299" x1="179.592" y1="180.48" x2="183.963" y2="180.48" gradientUnits="userSpaceOnUse">
<stop offset="0.01" stop-color="#FC5E92"/>
<stop offset="0.99" stop-color="#9B3CBA"/>
</linearGradient>
<linearGradient id="paint18_linear_21_1299" x1="236.165" y1="265.1" x2="358.719" y2="427.885" gradientUnits="userSpaceOnUse">
<stop offset="0.01" stop-color="#FCD765"/>
<stop offset="1" stop-color="#F4B027"/>
</linearGradient>
<linearGradient id="paint19_linear_21_1299" x1="256.675" y1="249.593" x2="377.235" y2="418.745" gradientUnits="userSpaceOnUse">
<stop offset="0.01" stop-color="#FCD765"/>
<stop offset="1" stop-color="#F4B027"/>
</linearGradient>
<linearGradient id="paint20_linear_21_1299" x1="284.918" y1="230.067" x2="407.833" y2="391.665" gradientUnits="userSpaceOnUse">
<stop offset="0.01" stop-color="#FCD765"/>
<stop offset="1" stop-color="#F4B027"/>
</linearGradient>
<linearGradient id="paint21_linear_21_1299" x1="298.862" y1="219.829" x2="421.673" y2="381.491" gradientUnits="userSpaceOnUse">
<stop offset="0.01" stop-color="#FCD765"/>
<stop offset="1" stop-color="#F4B027"/>
</linearGradient>
<linearGradient id="paint22_linear_21_1299" x1="282.565" y1="231.143" x2="402.724" y2="401.319" gradientUnits="userSpaceOnUse">
<stop offset="0.01" stop-color="#FCD765"/>
<stop offset="1" stop-color="#F4B027"/>
</linearGradient>
<linearGradient id="paint23_linear_21_1299" x1="271.528" y1="239.455" x2="393.476" y2="404.321" gradientUnits="userSpaceOnUse">
<stop offset="0.01" stop-color="#FCD765"/>
<stop offset="1" stop-color="#F4B027"/>
</linearGradient>
<linearGradient id="paint24_linear_21_1299" x1="272.156" y1="238.468" x2="394.041" y2="403.27" gradientUnits="userSpaceOnUse">
<stop offset="0.01" stop-color="#FCD765"/>
<stop offset="1" stop-color="#F4B027"/>
</linearGradient>
<linearGradient id="paint25_linear_21_1299" x1="245.96" y1="257.92" x2="367.971" y2="422.607" gradientUnits="userSpaceOnUse">
<stop offset="0.01" stop-color="#FCD765"/>
<stop offset="1" stop-color="#F4B027"/>
</linearGradient>
<linearGradient id="paint26_linear_21_1299" x1="252.691" y1="255.125" x2="366.953" y2="417.313" gradientUnits="userSpaceOnUse">
<stop offset="0.01" stop-color="#FCD765"/>
<stop offset="1" stop-color="#F4B027"/>
</linearGradient>
<linearGradient id="paint27_linear_21_1299" x1="204.353" y1="261.298" x2="206.511" y2="287.82" gradientUnits="userSpaceOnUse">
<stop stop-color="#FFE4D9"/>
<stop offset="0.44" stop-color="#F9D8C7"/>
<stop offset="1" stop-color="#F7C9B1"/>
</linearGradient>
<linearGradient id="paint28_linear_21_1299" x1="186.732" y1="316.411" x2="236.114" y2="316.411" gradientUnits="userSpaceOnUse">
<stop offset="0.01" stop-color="#102F66"/>
<stop offset="1" stop-color="#0060C9"/>
</linearGradient>
<linearGradient id="paint29_linear_21_1299" x1="205.532" y1="326.049" x2="233.787" y2="300.909" gradientUnits="userSpaceOnUse">
<stop stop-color="#0C1F3D"/>
<stop offset="0.54" stop-color="#102F66"/>
<stop offset="1" stop-color="#0060C9"/>
</linearGradient>
<linearGradient id="paint30_linear_21_1299" x1="128.267" y1="334.471" x2="102.81" y2="302.141" gradientUnits="userSpaceOnUse">
<stop offset="0.01" stop-color="#102F66"/>
<stop offset="1" stop-color="#0060C9"/>
</linearGradient>
<linearGradient id="paint31_linear_21_1299" x1="124.055" y1="321.965" x2="102.453" y2="311.111" gradientUnits="userSpaceOnUse">
<stop stop-color="#0C1F3D"/>
<stop offset="0.54" stop-color="#102F66"/>
<stop offset="1" stop-color="#0060C9"/>
</linearGradient>
<linearGradient id="paint32_linear_21_1299" x1="157.281" y1="211.557" x2="199.274" y2="294.06" gradientUnits="userSpaceOnUse">
<stop stop-color="#C7E4F9"/>
<stop offset="1" stop-color="#329FF9"/>
</linearGradient>
<linearGradient id="paint33_linear_21_1299" x1="143.663" y1="216.391" x2="144.56" y2="263.516" gradientUnits="userSpaceOnUse">
<stop offset="0.01" stop-color="#C7E4F9"/>
<stop offset="0.32" stop-color="#6DBAF9"/>
<stop offset="0.51" stop-color="#329FF9"/>
<stop offset="1" stop-color="#348BE2"/>
</linearGradient>
<linearGradient id="paint34_linear_21_1299" x1="201.129" y1="204.676" x2="208.296" y2="298.032" gradientUnits="userSpaceOnUse">
<stop offset="0.01" stop-color="#C7E4F9"/>
<stop offset="0.32" stop-color="#6DBAF9"/>
<stop offset="0.51" stop-color="#329FF9"/>
<stop offset="1" stop-color="#348BE2"/>
</linearGradient>
<linearGradient id="paint35_linear_21_1299" x1="116.961" y1="213.351" x2="125.586" y2="213.351" gradientUnits="userSpaceOnUse">
<stop stop-color="#FFE4D9"/>
<stop offset="0.44" stop-color="#F9D8C7"/>
<stop offset="1" stop-color="#F7C9B1"/>
</linearGradient>
<linearGradient id="paint36_linear_21_1299" x1="122.59" y1="221.053" x2="130.508" y2="239.493" gradientUnits="userSpaceOnUse">
<stop stop-color="#FFE4D9"/>
<stop offset="0.44" stop-color="#F9D8C7"/>
<stop offset="1" stop-color="#F7C9B1"/>
</linearGradient>
<linearGradient id="paint37_linear_21_1299" x1="132.927" y1="213.077" x2="133.747" y2="223.174" gradientUnits="userSpaceOnUse">
<stop stop-color="#FFE4D9"/>
<stop offset="0.44" stop-color="#F9D8C7"/>
<stop offset="1" stop-color="#F7C9B1"/>
</linearGradient>
<linearGradient id="paint38_linear_21_1299" x1="130.226" y1="213.3" x2="131.047" y2="223.397" gradientUnits="userSpaceOnUse">
<stop stop-color="#FFE4D9"/>
<stop offset="0.44" stop-color="#F9D8C7"/>
<stop offset="1" stop-color="#F7C9B1"/>
</linearGradient>
<linearGradient id="paint39_linear_21_1299" x1="159.535" y1="290.801" x2="158.638" y2="323.624" gradientUnits="userSpaceOnUse">
<stop stop-color="#0C1F3D"/>
<stop offset="0.54" stop-color="#102F66"/>
<stop offset="1" stop-color="#0060C9"/>
</linearGradient>
<linearGradient id="paint40_linear_21_1299" x1="122.267" y1="258.967" x2="200.054" y2="258.967" gradientUnits="userSpaceOnUse">
<stop offset="0.01" stop-color="#FCD765"/>
<stop offset="1" stop-color="#F4B027"/>
</linearGradient>
<linearGradient id="paint41_linear_21_1299" x1="185.144" y1="266.335" x2="186.191" y2="285.686" gradientUnits="userSpaceOnUse">
<stop offset="0.01" stop-color="#F9C138"/>
<stop offset="0.46" stop-color="#F4B027"/>
<stop offset="0.99" stop-color="#D39313"/>
</linearGradient>
<linearGradient id="paint42_linear_21_1299" x1="132.927" y1="269.163" x2="133.974" y2="288.513" gradientUnits="userSpaceOnUse">
<stop offset="0.01" stop-color="#F9C138"/>
<stop offset="0.46" stop-color="#F4B027"/>
<stop offset="0.99" stop-color="#D39313"/>
</linearGradient>
<linearGradient id="paint43_linear_21_1299" x1="173.599" y1="311.202" x2="224.347" y2="280.48" gradientUnits="userSpaceOnUse">
<stop offset="0.01" stop-color="#102F66"/>
<stop offset="1" stop-color="#0060C9"/>
</linearGradient>
<linearGradient id="paint44_linear_21_1299" x1="188.643" y1="326.951" x2="205.827" y2="268.028" gradientUnits="userSpaceOnUse">
<stop stop-color="#0C1F3D"/>
<stop offset="0.54" stop-color="#102F66"/>
<stop offset="1" stop-color="#0060C9"/>
</linearGradient>
<linearGradient id="paint45_linear_21_1299" x1="182.795" y1="336.67" x2="100.248" y2="263.923" gradientUnits="userSpaceOnUse">
<stop offset="0.01" stop-color="#102F66"/>
<stop offset="1" stop-color="#0060C9"/>
</linearGradient>
<linearGradient id="paint46_linear_21_1299" x1="171.25" y1="328.542" x2="113.415" y2="267.39" gradientUnits="userSpaceOnUse">
<stop stop-color="#0C1F3D"/>
<stop offset="0.54" stop-color="#102F66"/>
<stop offset="1" stop-color="#0060C9"/>
</linearGradient>
<linearGradient id="paint47_linear_21_1299" x1="169.443" y1="195.058" x2="180.657" y2="231.517" gradientUnits="userSpaceOnUse">
<stop stop-color="#FFE4D9"/>
<stop offset="0.44" stop-color="#F9D8C7"/>
<stop offset="1" stop-color="#F7C9B1"/>
</linearGradient>
<linearGradient id="paint48_linear_21_1299" x1="148.028" y1="186.261" x2="183.422" y2="186.261" gradientUnits="userSpaceOnUse">
<stop stop-color="#FFE4D9"/>
<stop offset="0.44" stop-color="#F9D8C7"/>
<stop offset="1" stop-color="#F7C9B1"/>
</linearGradient>
</defs>
</svg>
