<svg width="400" height="343" viewBox="0 0 400 343" fill="none" xmlns="http://www.w3.org/2000/svg">
<path d="M253.21 343C300.874 343 339.513 334.714 339.513 324.493C339.513 314.272 300.874 305.986 253.21 305.986C205.546 305.986 166.906 314.272 166.906 324.493C166.906 334.714 205.546 343 253.21 343Z" fill="url(#paint0_linear_17_1014)"/>
<path d="M0.127289 155.35C0.127289 170.684 8.96557 184.591 23.7557 188.637C58.3861 198.109 128.849 208.436 220.201 175.091C280.378 153.126 326.313 143.76 356.562 139.83C379.488 136.851 399.178 117.627 399.277 94.5082L399.509 40.1708C399.603 18.0129 381.667 0 359.509 0H40.1273C18.0359 0 0.127289 17.9086 0.127289 40V155.35Z" fill="url(#paint1_linear_17_1014)"/>
<path d="M345.401 262.159C345.401 262.159 347.638 288.671 347.063 296.755C346.488 304.839 345.625 308.738 345.625 308.738L306.426 318.184L256.54 305.678L251.607 260.274L280.013 248.567L345.412 262.169L345.401 262.159Z" fill="url(#paint2_linear_17_1014)"/>
<path d="M307.609 314.601L308.418 273.48L270.764 253.256L265.97 254.331L251.586 260.264L256.53 305.668L306.341 318.154L307.609 314.601Z" fill="url(#paint3_linear_17_1014)"/>
<path d="M346.062 306.201C346.062 306.201 345.55 308.106 344.229 308.293C342.897 308.481 309.473 316.377 308.866 315.884C308.269 315.39 307.854 308.965 307.715 309.379C307.555 309.863 307.459 315.084 306.522 315.084C305.584 315.084 298.68 313.406 298.68 312.854C298.68 312.301 303.89 278.287 303.805 274.704C303.72 271.131 294.876 269.798 294.876 269.798L288.355 300.693C288.355 300.693 288.228 308.836 285.287 308.343C282.346 307.849 263.37 303.901 262.678 301.809C261.985 299.716 263.977 289.549 264.649 282.601C265.309 275.652 265.054 265.288 266.907 265.781C268.761 266.275 280.183 265.959 280.183 265.959L272.501 258.003L258.575 257.372L254.452 259.069L252.215 265.998L256.53 305.648L306.415 318.154L345.614 308.708C345.614 308.708 345.795 307.869 346.051 306.171L346.062 306.201Z" fill="url(#paint4_linear_17_1014)"/>
<path d="M345.774 266.897C345.55 264.014 345.401 262.149 345.401 262.149L328.151 258.556L321.151 259.444C321.151 259.444 266.95 257.49 258.97 257.214L257.744 257.717C257.403 258.832 256.924 261.29 256.924 261.29L308.152 274.694C319.851 274.625 339.402 268.861 345.774 266.887V266.897Z" fill="url(#paint5_linear_17_1014)"/>
<path d="M257.478 265.781L312.403 280.548L346.275 274.23L346.424 276.323C346.424 276.323 333.755 279.709 329.525 280.794C319.574 283.351 308.983 284.713 308.983 284.713L256.903 266.946L257.467 265.771L257.478 265.781Z" fill="url(#paint6_linear_17_1014)"/>
<path d="M256.913 278.494L307.598 297.367C307.598 297.367 319.84 295.748 326.563 294.524C332.019 293.537 347.116 289.549 347.116 289.549L346.978 286.48L308.227 292.886L258.064 278.248L256.913 278.494Z" fill="url(#paint7_linear_17_1014)"/>
<path d="M335.364 258.26L347.862 260.264C347.862 260.264 327.245 270.963 308.195 272.197L265.874 262.109L296.442 257.589L335.364 258.25V258.26Z" fill="url(#paint8_linear_17_1014)"/>
<path d="M256.317 291.385L257.254 292.747V306.872L251.767 311.146L245.459 305.964L244.117 288.73L256.317 291.385Z" fill="url(#paint9_linear_17_1014)"/>
<path d="M284.999 239.96C284.999 239.96 256.551 233.544 244.128 239.318C244.128 239.318 239.685 241.52 239.44 247.58C239.194 253.64 240.612 281.535 239.44 291.03C239.44 291.03 241.592 292.155 248.922 293.044C256.253 293.932 257.894 293.31 257.894 293.31C257.894 293.31 259.929 272.72 258.33 260.224C258.33 260.224 282.89 265.544 284.989 265.357C287.088 265.169 284.989 239.95 284.989 239.95L284.999 239.96Z" fill="url(#paint10_linear_17_1014)"/>
<path d="M256.988 306.438C256.988 306.438 253.269 309.616 251.991 308.57C250.712 307.524 250.702 303.763 246.802 303.348C242.902 302.934 241.848 305.944 240.612 308.165C239.365 310.386 232.951 316.851 226.228 319.753C219.504 322.655 226.419 326.544 233.952 325.794C241.485 325.044 246.663 320.247 247.782 319.852C247.782 319.852 248.326 321.174 249.604 321.056C250.883 320.938 258.171 318.855 258.703 318.203C259.236 317.552 259.204 314.344 258.799 312.765C258.394 311.186 259.62 305.668 256.988 306.438Z" fill="url(#paint11_linear_17_1014)"/>
<path d="M294.834 297.525L295.697 298.917L295.068 313.031L289.4 317.098L283.326 311.679L282.762 294.406L294.834 297.525Z" fill="url(#paint12_linear_17_1014)"/>
<path d="M306.287 236.535C306.287 236.535 285.862 234.077 276.987 241.973C276.987 241.973 275.357 244.254 276.486 251.173C277.615 258.092 278.628 294.524 277.296 303.348C277.296 303.348 291.989 306.418 295.984 302.341C295.984 302.341 299.394 268.969 298.669 265.09C298.669 265.09 318.008 270.637 330.793 264.014C341.267 258.586 340.649 244.599 335.609 235.153C330.921 226.358 306.287 236.535 306.287 236.535Z" fill="url(#paint13_linear_17_1014)"/>
<path d="M336.451 245.754C335.737 243.119 332.008 242.131 332.008 239.516C332.008 236.9 337.048 237.255 337.08 237.255C336.771 236.535 336.43 235.834 336.067 235.153C335.29 233.692 333.947 232.764 332.274 232.212C329.621 232.093 326.84 231.975 326.723 231.975C326.499 231.975 316.591 234.581 316.388 235.044C316.282 235.281 314.694 238.687 316.1 239.476C317.507 240.266 325.327 242.092 330.665 244.846C336.089 247.649 337.144 248.38 336.44 245.754H336.451Z" fill="url(#paint14_linear_17_1014)"/>
<path d="M296.517 148.204L294.034 147.878C294.034 147.878 285.159 142.281 290.838 135.293C296.517 128.305 303.091 132.085 304.956 134.385C306.82 136.685 313.213 133.398 315.259 136.685C317.304 139.972 323.601 134.632 324.763 146.723C325.924 158.815 319.617 162.19 319.617 162.19L315.173 159.969L296.528 148.204H296.517Z" fill="#1A1244"/>
<path d="M294.034 147.878C294.034 147.878 293.15 154.294 294.482 160.71C295.814 167.126 296.432 172.801 299.809 173.374C303.187 173.946 311.966 175.071 311.966 175.071L320.192 170.432C320.192 170.432 319.435 162.842 319.616 162.19C319.798 161.539 322.994 160.789 322.365 157.008C321.737 153.228 319.968 151.254 317.219 153.8C314.47 156.347 313.575 155.774 313.405 151.905C313.234 148.036 311.679 149.003 311.071 146.536C310.475 144.068 309.569 143.387 308.099 142.706C306.628 142.025 299.127 143.219 294.045 147.868L294.034 147.878Z" fill="url(#paint15_linear_17_1014)"/>
<path d="M294.684 311.896C294.684 311.896 292.447 316.042 291.168 315.005C289.89 313.969 288.057 310.988 284.157 310.583C280.258 310.179 279.544 312.39 278.297 314.611C277.051 316.831 272.128 323.287 265.405 326.189C258.682 329.091 265.597 332.98 273.13 332.229C280.663 331.479 289.059 327.482 290.177 327.077C290.177 327.077 290.476 327.877 291.754 327.758C293.033 327.64 296.815 325.626 297.348 324.975C297.881 324.323 297.753 320.947 297.348 319.368C296.943 317.789 297.178 309.606 294.695 311.906L294.684 311.896Z" fill="url(#paint16_linear_17_1014)"/>
<path d="M345.593 184.843C345.433 180.609 337.09 176.907 335.311 176.335C333.532 175.762 323.814 174.055 323.814 174.055C323.814 174.055 321.193 169.998 320.927 169.919C320.661 169.84 316.132 169.179 316.132 169.179L302.729 173.413L299.532 178.18C299.532 178.18 292.66 177.519 289.282 179.128C285.905 180.737 271.617 192.187 265.778 192.69C265.778 192.69 268.644 183.53 268.506 183.057C268.378 182.583 260.44 179.424 259.481 179.296C258.522 179.168 247.313 195.908 247.281 198.622C247.249 201.337 247.505 206.272 251.682 208.167C255.858 210.062 283.859 204.229 288.59 202.245C288.59 202.245 295.153 223.832 295.196 236.278C295.196 236.278 312.041 237.236 316.111 239.476C323.271 239.693 330.708 238.785 335.609 235.153C335.609 235.153 333.542 227.395 339.317 216.054C345.092 204.712 345.753 189.068 345.603 184.843H345.593Z" fill="url(#paint17_linear_17_1014)"/>
<path d="M253.451 276.895C253.451 276.895 308.322 294.82 308.855 294.781C309.665 294.731 346.232 289.214 351.389 285.66L346.914 284.782C346.914 284.782 333.638 287.852 329.461 288.612C324.262 289.549 309.399 291.573 309.399 291.573L253.461 276.885L253.451 276.895Z" fill="url(#paint18_linear_17_1014)"/>
<path d="M256.114 265.189L256.977 265.969L311.87 282.61C311.87 282.61 341.437 276.767 347.564 274.635L346.253 273.687C346.253 273.687 332.711 276.619 327.629 277.695C317.177 279.916 312.052 279.876 312.052 279.876L256.114 265.189Z" fill="url(#paint19_linear_17_1014)"/>
<path d="M285.862 254.598C281.515 252.653 269.486 247.402 268.506 248.518C267.312 249.88 269.837 251.943 267.845 251.834C265.842 251.725 259.982 246.04 256.53 246.168C253.067 246.297 249.498 245.063 247.281 249.386C245.076 253.709 245.63 258.27 247.281 259.75C248.933 261.231 254.26 264.409 253.323 265.228C252.385 266.048 247.494 260.56 247.281 262.129C247.068 263.698 250.126 271.723 249.732 275.918C249.338 280.113 247.494 282.581 247.281 284.426C247.143 285.67 247.281 289.905 247.654 292.895C248.059 292.955 248.485 293.004 248.933 293.063C255.997 293.922 257.904 293.33 257.904 293.33C257.904 293.33 259.939 272.74 258.341 260.244C258.341 260.244 282.9 265.564 284.999 265.376C285.042 265.376 285.084 265.337 285.127 265.317C285.361 264.35 285.596 263.323 285.83 262.307C285.969 260.303 285.947 257.529 285.862 254.608V254.598Z" fill="url(#paint20_linear_17_1014)"/>
<path d="M285.777 192.206C284.712 192.453 284.978 195 283.561 194.921C282.144 194.842 279.746 192.127 278.766 193.766C277.786 195.414 277.349 197.221 275.389 198.208C273.439 199.195 261.537 205.689 262.155 203.39C262.773 201.09 266.95 198.375 267.302 196.974C267.653 195.572 265.352 194.427 265.352 193.272C265.352 193.026 265.629 192.493 266.044 191.841C266.748 189.561 268.612 183.441 268.506 183.056C268.442 182.819 266.46 181.921 264.35 181.063C262.986 182.622 260.898 185.149 261.442 185.376C262.241 185.702 265.437 183.402 265.437 184.882C265.437 186.363 256.381 191.624 254.335 194.921C252.31 198.178 249.519 203.765 249.37 206.43C249.956 207.121 250.712 207.733 251.671 208.167C255.848 210.062 283.848 204.229 288.579 202.245C288.579 202.245 286.651 197.635 286.384 195.829C286.118 194.023 286.832 191.96 285.766 192.206H285.777Z" fill="url(#paint21_linear_17_1014)"/>
<path d="M323.154 187.024C323.154 187.024 330.079 193.608 330.346 196.076C330.612 198.543 330.793 202.245 330.793 202.245C330.793 202.245 327.416 207.259 324.848 207.673C322.28 208.088 319.702 207.427 319.254 206.519C318.807 205.61 321.034 199.609 320.671 198.375C320.309 197.142 319.521 201.83 318.54 200.922C317.56 200.014 317.741 193.519 317.656 189.818C317.571 186.116 316.676 183.895 315.877 185.455C315.078 187.014 313.831 186.58 314.097 184.952C314.364 183.323 313.831 178.052 323.154 187.024Z" fill="url(#paint22_linear_17_1014)"/>
<path d="M321.47 207.14L322.717 207.802C322.717 207.802 326.713 208.463 328.226 207.802C329.739 207.14 335.375 203.192 336.302 204.011C337.229 204.831 337.548 208.739 336.302 212.688C335.055 216.636 334.352 219.597 334.086 220.337C333.819 221.078 329.579 212.609 329.302 214.829C329.025 217.05 333.201 224.453 333.02 226.842C332.839 229.231 333.809 232.725 332.296 232.893C330.783 233.06 331.699 235.034 330.793 235.607C329.888 236.179 316.931 238.489 316.047 236.92C314.065 233.426 323.335 229.477 324.23 227.582C325.125 225.687 320.948 226.921 319.254 223.881C317.56 220.841 320.032 218.126 320.117 216.804C320.203 215.491 319.073 214.583 318.807 212.441C318.54 210.299 319.201 206.025 319.201 206.025L321.47 207.14Z" fill="url(#paint23_linear_17_1014)"/>
<path d="M295.984 302.351C295.984 302.351 297.508 287.437 298.296 276.392C295.697 273.174 292.33 269.492 290.082 265.544C286.352 259.01 293.012 266.531 294.216 265.544C295.42 264.557 291.467 257.362 292.085 255.96C292.703 254.558 296.613 257.026 299.543 258.349C302.473 259.671 302.825 257.687 299.543 252.426C296.261 247.165 289.602 244.944 284.893 243.957C280.183 242.97 277.157 247.955 277.157 247.955L276.326 250.077C276.369 250.432 276.422 250.798 276.486 251.193C277.615 258.112 278.628 294.544 277.296 303.368C277.296 303.368 291.989 306.438 295.984 302.361V302.351Z" fill="url(#paint24_linear_17_1014)"/>
<path d="M338.134 255.308C338.049 255.417 335.748 258.497 331.497 257.648C327.171 256.779 324.507 252.466 323.505 253.394C322.504 254.321 328.854 259.267 324.55 259.721C320.245 260.175 312.052 256.217 310.656 257.796C309.26 259.375 306.991 260.737 304.529 261.784C302.494 262.652 294.759 263.096 299.362 265.288C302.91 266.196 319.425 269.907 330.783 264.024C334.597 262.05 336.941 258.931 338.134 255.308Z" fill="url(#paint25_linear_17_1014)"/>
<path d="M296.208 183.737C297.87 186.639 301.067 191.693 304.071 192.374C307.065 193.055 308.738 190.025 308.738 190.025L304.679 179.848L301.844 174.755L299.554 178.18C299.554 178.18 293.96 177.647 290.38 178.723C292.01 179.681 295.036 181.655 296.229 183.728L296.208 183.737Z" fill="url(#paint26_linear_17_1014)"/>
<path d="M297.135 225.075C293.736 222.795 291.754 213.349 291.754 213.349L291.563 213.28C292.798 218.373 294.098 224.503 294.759 230.001C295.505 227.651 300.534 227.345 297.135 225.065V225.075Z" fill="url(#paint27_linear_17_1014)"/>
<path d="M324.837 174.282C324.837 174.282 324.837 174.252 324.837 174.242C324.209 174.133 323.825 174.064 323.825 174.064C323.825 174.064 323.228 173.137 322.568 172.169C320.171 172.88 318.828 174.824 317.507 174.212C316.09 173.551 314.864 173.433 314.864 173.433L311.913 175.051C311.913 175.051 318.732 181.28 318.999 181.28C319.798 181.28 324.837 175.811 324.837 174.291V174.282Z" fill="url(#paint28_linear_17_1014)"/>
<path d="M319.989 168.409C318.785 169.109 317.123 169.82 316.654 169.425C315.994 168.873 317.741 167.125 317.475 165.645C317.208 164.164 315.61 164.737 313.565 164.391C311.519 164.046 308.322 159.801 308.152 158.4C307.971 156.998 310.997 153.958 308.727 151.658C306.469 149.359 304.156 152.892 304.156 152.892L294.024 157.857C294.13 158.795 294.279 159.752 294.482 160.71C295.814 167.125 296.432 172.801 299.809 173.373C303.187 173.946 311.966 175.071 311.966 175.071L320.192 170.432C320.192 170.432 320.107 169.573 320 168.409H319.989Z" fill="url(#paint29_linear_17_1014)"/>
<path d="M278.255 152.981L275.527 153.85C275.527 153.85 269.869 154.432 269.869 158.597C269.869 162.082 270.946 162.684 270.946 162.684L274.376 165.971L282.357 164.608L289.282 163.187L297.146 162.427L300.076 154.452L297.327 151.905H291.339L278.276 152.981H278.255Z" fill="url(#paint30_linear_17_1014)"/>
<path d="M291.882 152.27C291.882 152.27 296.879 151.964 296.879 153.07C296.879 154.175 295.079 161.085 295.942 163.493C296.805 165.901 304.668 179.839 304.668 179.839L311.924 175.022C311.924 175.022 303.933 164.599 304.338 162.802C304.742 161.006 307.736 154.906 307.47 153.859C307.204 152.813 306.202 152.004 305.542 151.698C304.881 151.392 301.876 149.536 301.077 149.112C300.278 148.687 298.68 149.052 298.211 149.418C297.742 149.793 296.741 149.23 296.08 149.536C295.42 149.842 294.951 150.642 294.216 150.642C293.48 150.642 291.222 151.569 291.882 152.241V152.27Z" fill="url(#paint31_linear_17_1014)"/>
<path d="M304.327 162.822C304.732 161.035 307.726 154.925 307.459 153.879C307.385 153.593 307.257 153.326 307.097 153.09C307.097 153.109 307.055 154.748 305.861 155.488C304.668 156.228 300.939 158.202 300.406 159.249C299.873 160.295 299.426 164.115 299.543 164.391C299.671 164.678 308.088 177.578 308.088 177.578L311.924 175.032C311.924 175.032 303.933 164.608 304.338 162.812L304.327 162.822Z" fill="url(#paint32_linear_17_1014)"/>
<path d="M275.774 163.619C277.637 163.197 278.684 161.099 278.113 158.933C277.541 156.767 275.567 155.354 273.703 155.776C271.84 156.198 270.793 158.296 271.364 160.461C271.936 162.627 273.91 164.041 275.774 163.619Z" fill="url(#paint33_linear_17_1014)"/>
<path d="M292.093 161.885C293.956 161.463 295.003 159.365 294.432 157.199C293.86 155.033 291.886 153.62 290.023 154.042C288.159 154.464 287.112 156.562 287.684 158.728C288.255 160.894 290.229 162.307 292.093 161.885Z" fill="url(#paint34_linear_17_1014)"/>
<path d="M291.072 163.019C287.056 162.407 286.459 159.259 286.374 158.242C286.374 158.114 286.363 157.995 286.352 157.916C286.331 157.215 285.34 154.837 285.34 154.837L282.048 152.675L279.459 152.892L278.436 152.981L277.924 153.099L278.5 153.405C278.5 153.405 280.002 153.859 280.801 155.498C281.6 157.136 281.664 159.969 280.801 160.808C279.938 161.637 278.734 162.348 278.734 162.348C278.734 162.348 278.425 164.51 276.689 164.756C275.708 164.895 276.433 165.22 277.338 165.487L281.025 164.855C282.048 164.263 283.294 163.503 284.36 162.851L284.466 163.937L284.978 164.095L289.261 163.217L291.051 163.039L291.072 163.019Z" fill="url(#paint35_linear_17_1014)"/>
<path d="M259.47 179.464C259.662 182.06 268.506 183.056 268.506 183.056C268.506 183.056 275.165 171.399 275.9 170.185C276.635 168.971 277.562 168.932 279.427 168.379C281.291 167.826 289.282 163.197 289.282 163.197C289.282 163.197 287.418 163.128 287.077 162.891C286.768 162.684 286.693 161.41 286.693 161.41C286.693 161.41 279.661 164.204 276.507 164.786C273.354 165.368 270.956 162.694 270.956 162.694L259.492 179.315V179.483L259.47 179.464Z" fill="url(#paint36_linear_17_1014)"/>
<path d="M286.683 161.41C286.683 161.41 279.651 164.204 276.497 164.786C274.728 165.112 273.194 164.411 272.192 163.73C272.192 163.73 271.681 164.372 272.192 165.359C272.704 166.346 273.567 167.579 271.169 171.528C269.22 174.736 265 180.145 263.477 182.079C265.895 182.77 268.506 183.066 268.506 183.066C268.506 183.066 275.165 171.409 275.9 170.195C276.635 168.981 277.562 168.942 279.427 168.389C281.291 167.836 289.282 163.207 289.282 163.207C289.282 163.207 287.951 162.822 287.375 162.318C286.8 161.815 286.683 161.41 286.683 161.41Z" fill="url(#paint37_linear_17_1014)"/>
<path d="M275.527 153.85C275.527 153.85 276.593 151.787 278.223 151.54C279.853 151.293 279.991 151.076 280.322 150.8C280.652 150.523 281.92 149.753 282.623 149.625C283.326 149.497 285.692 148.342 287.12 148.934C288.547 149.526 291.882 151.362 291.328 151.905C290.721 152.487 288.217 153.366 287.737 153.879C286.874 154.807 286.182 156.722 286.363 157.916C286.363 157.916 285.084 158.351 284.094 156.929C283.092 155.508 281.366 153.474 279.96 153.346C278.564 153.228 275.527 153.84 275.527 153.84V153.85Z" fill="url(#paint38_linear_17_1014)"/>
<path opacity="0.26" d="M228.291 133.252C228.622 133.489 228.984 133.686 229.272 133.953C238.978 142.955 248.674 151.976 258.37 160.988C258.466 161.077 258.572 161.166 258.668 161.264C259.094 161.699 259.254 162.192 259.009 162.755C258.753 163.337 258.252 163.613 257.592 163.633C256.963 163.653 256.335 163.633 255.706 163.633C251.188 163.633 246.671 163.633 242.153 163.633C241.876 163.633 241.61 163.633 241.258 163.633C241.258 163.969 241.258 164.245 241.258 164.522C241.258 175.517 241.258 186.523 241.258 197.519C241.258 199.098 240.821 199.503 239.116 199.503C231.552 199.503 223.987 199.503 216.422 199.503C214.92 199.503 214.451 199.068 214.451 197.686C214.451 186.641 214.451 175.596 214.451 164.561V163.633H213.598C208.612 163.633 203.636 163.633 198.65 163.633C198.415 163.633 198.181 163.643 197.957 163.613C196.753 163.446 196.242 162.241 196.998 161.353C197.158 161.166 197.35 161.008 197.531 160.84C207.088 151.976 216.656 143.112 226.224 134.259C226.618 133.893 227.055 133.587 227.471 133.252H228.313H228.291Z" fill="url(#paint39_linear_17_1014)"/>
<path opacity="0.26" d="M65.3988 261.401C65.6013 261.549 65.8357 261.677 66.0168 261.845C72.1326 267.52 78.2378 273.196 84.343 278.871C84.4069 278.931 84.4708 278.99 84.5241 279.049C84.7905 279.325 84.897 279.631 84.7372 279.987C84.5774 280.352 84.2577 280.53 83.8422 280.54C83.448 280.549 83.0537 280.54 82.6595 280.54C79.8147 280.54 76.9699 280.54 74.1251 280.54C73.9546 280.54 73.7841 280.54 73.5604 280.54C73.5604 280.757 73.5604 280.925 73.5604 281.092C73.5604 288.021 73.5604 294.95 73.5604 301.88C73.5604 302.876 73.2833 303.133 72.2072 303.133C67.4445 303.133 62.6712 303.133 57.9085 303.133C56.9603 303.133 56.6726 302.857 56.6726 301.988C56.6726 295.029 56.6726 288.071 56.6726 281.122V280.54H56.1292C52.986 280.54 49.8535 280.54 46.7104 280.54C46.5612 280.54 46.4121 280.54 46.2736 280.53C45.5171 280.421 45.1974 279.661 45.6662 279.108C45.7621 278.99 45.89 278.891 45.9965 278.783C52.0165 273.196 58.047 267.619 64.067 262.032C64.312 261.805 64.5891 261.608 64.8554 261.401H65.3882H65.3988Z" fill="url(#paint40_linear_17_1014)"/>
<path d="M311.353 297.181C311.502 297.29 311.673 297.379 311.811 297.507C316.286 301.662 320.772 305.828 325.247 309.983C325.289 310.023 325.343 310.062 325.385 310.112C325.588 310.309 325.652 310.546 325.545 310.802C325.428 311.069 325.193 311.197 324.895 311.207C324.607 311.207 324.32 311.207 324.021 311.207C321.933 311.207 319.855 311.207 317.767 311.207C317.639 311.207 317.511 311.207 317.352 311.207C317.352 311.365 317.352 311.493 317.352 311.612C317.352 316.685 317.352 321.769 317.352 326.842C317.352 327.572 317.149 327.76 316.361 327.76C312.866 327.76 309.371 327.76 305.887 327.76C305.194 327.76 304.981 327.563 304.981 326.921C304.981 321.828 304.981 316.725 304.981 311.632V311.207H304.587C302.286 311.207 299.984 311.207 297.683 311.207C297.576 311.207 297.47 311.207 297.363 311.207C296.809 311.128 296.575 310.575 296.926 310.161C297.001 310.072 297.086 310.003 297.171 309.924C301.583 305.838 306.004 301.741 310.415 297.655C310.596 297.487 310.799 297.339 310.991 297.191H311.374L311.353 297.181Z" fill="url(#paint41_linear_17_1014)"/>
<path d="M371.186 196.433C371.442 196.62 371.73 196.778 371.964 196.986C379.603 204.073 387.232 211.17 394.872 218.266C394.946 218.335 395.032 218.405 395.106 218.484C395.447 218.829 395.564 219.214 395.372 219.658C395.17 220.112 394.776 220.339 394.254 220.349C393.764 220.359 393.263 220.349 392.773 220.349C389.214 220.349 385.666 220.349 382.107 220.349C381.894 220.349 381.681 220.349 381.404 220.349C381.404 220.616 381.404 220.833 381.404 221.05C381.404 229.706 381.404 238.363 381.404 247.029C381.404 248.273 381.063 248.589 379.71 248.589C373.754 248.589 367.798 248.589 361.842 248.589C360.659 248.589 360.297 248.253 360.297 247.157C360.297 238.461 360.297 229.775 360.297 221.08V220.349H359.626C355.705 220.349 351.784 220.349 347.863 220.349C347.682 220.349 347.49 220.359 347.32 220.329C346.371 220.191 345.966 219.244 346.563 218.553C346.691 218.405 346.84 218.276 346.979 218.148C354.501 211.17 362.034 204.191 369.567 197.222C369.876 196.936 370.217 196.689 370.547 196.423H371.208L371.186 196.433Z" fill="url(#paint42_linear_17_1014)"/>
<path d="M122.824 80.8805C135.163 80.8805 145.167 71.6135 145.167 60.182C145.167 48.7506 135.163 39.4836 122.824 39.4836C110.484 39.4836 100.481 48.7506 100.481 60.182C100.481 71.6135 110.484 80.8805 122.824 80.8805Z" fill="url(#paint43_linear_17_1014)"/>
<path d="M123.026 80.3573C122.536 80.1599 121.108 80.1302 120.512 79.9328C119.915 79.7354 119.116 78.9951 118.04 78.3832C116.964 77.7712 115.184 77.8995 114.417 77.2875C113.65 76.6756 114.385 76.4485 113.511 75.2542C112.638 74.0599 112.009 73.9414 111.732 73.9414C111.455 73.9414 110.571 72.1746 111.178 71.8291C111.785 71.4837 112.02 70.6644 112.02 69.9735C112.02 69.2826 111.647 68.9864 111.04 68.4238C110.432 67.8612 111.082 67.2591 111.881 66.5287C112.68 65.7983 112.393 65.1962 112.116 64.3769C111.839 63.5577 111.189 63.9031 110.762 63.4688C110.336 63.0345 109.186 59.4614 113.181 58.1289C117.177 56.7964 115.387 51.9697 115.387 51.9697C115.387 51.9697 114.875 51.4564 114.897 51.2195C114.918 50.9826 116.101 50.7852 116.101 50.7852C116.101 50.7852 116.665 50.5681 116.846 50.3114C117.027 50.0548 116.889 49.8179 116.356 49.6896C115.823 49.5613 116.196 49.1763 116.729 48.6729C117.262 48.1696 118.082 48.3275 118.658 47.7649C119.244 47.2022 120.235 46.2547 120.405 45.7217C120.565 45.1788 120.565 44.3694 121.012 44.1523C121.449 43.9351 121.993 43.8956 122.366 43.6982C122.738 43.5008 122.248 43.2442 122.11 42.9678C121.971 42.6914 122.248 42.6914 122.366 42.6026C122.483 42.5138 123.015 42.7704 123.175 42.6914C123.335 42.6026 123.335 42.2571 123.133 42.0498C122.92 41.8327 122.291 41.6649 122.248 41.507C122.206 41.3589 122.429 41.1023 122.834 40.8654C123.239 40.6285 123.644 42.1387 124.507 41.507C125.359 40.895 128.439 40.1942 128.524 40.1744C128.013 40.0461 127.49 39.9375 126.947 39.8388C114.822 37.7364 103.144 45.1393 100.875 56.3719C98.6054 67.6046 106.596 78.4226 118.722 80.5251C121.961 81.0877 125.157 80.9692 128.162 80.2783C126.169 80.5645 123.516 80.5547 123.037 80.3573H123.026Z" fill="url(#paint44_linear_17_1014)"/>
<path d="M145.135 61.169L125.882 55.5231L101.919 52.8778C101.472 53.9932 101.109 55.1579 100.864 56.372C100.715 57.0925 100.619 57.8131 100.555 58.5336C113.511 54.0129 144.964 61.1295 145.135 61.169Z" fill="#073F82"/>
<path d="M124.028 54.2004C107.257 51.2886 81.8561 49.1763 80.6202 55.2664C79.8211 59.2245 89.8579 63.3603 101.589 66.578C101.322 65.8081 101.099 65.0284 100.928 64.2289C88.5793 60.6952 82.5487 57.1616 82.8577 55.6514C83.2945 53.47 97.6784 51.7723 123.612 56.2634C149.546 60.7544 162.289 67.1703 161.852 69.3516C161.543 70.8618 154.553 72.1351 141.672 71.2961C141.203 71.9871 140.67 72.6287 140.116 73.2604C152.305 74.1981 163.28 73.6947 164.079 69.7465C165.315 63.6564 140.798 57.1122 124.028 54.2004Z" fill="url(#paint45_linear_17_1014)"/>
<path d="M337.787 107.727C347.373 107.727 355.144 100.528 355.144 91.6477C355.144 82.7675 347.373 75.5686 337.787 75.5686C328.202 75.5686 320.431 82.7675 320.431 91.6477C320.431 100.528 328.202 107.727 337.787 107.727Z" fill="url(#paint46_linear_17_1014)"/>
<path d="M345.619 105.545C345.203 105.575 344.202 106.019 343.722 106.078C343.243 106.137 342.401 105.891 341.421 105.812C340.44 105.733 339.258 106.414 338.491 106.236C337.723 106.059 338.15 105.664 337.084 105.121C336.029 104.578 335.55 104.706 335.347 104.795C335.145 104.884 333.866 103.956 334.154 103.522C334.442 103.087 334.293 102.446 334.026 101.962C333.76 101.479 333.387 101.4 332.758 101.212C332.13 101.025 332.343 100.393 332.62 99.6229C332.897 98.853 332.46 98.5273 331.959 98.0535C331.458 97.5797 331.139 98.0338 330.681 97.866C330.223 97.6982 328.06 95.6155 330.318 93.3749C332.577 91.1442 329.498 88.3903 329.498 88.3903C329.498 88.3903 328.944 88.2028 328.869 88.0251C328.795 87.8573 329.541 87.3342 329.541 87.3342C329.541 87.3342 329.85 86.9986 329.882 86.7617C329.914 86.5248 329.722 86.4063 329.306 86.4853C328.891 86.5741 328.997 86.1793 329.178 85.666C329.36 85.1528 329.977 84.985 330.169 84.4125C330.361 83.8301 330.691 82.8529 330.595 82.4285C330.5 82.0041 330.191 81.4316 330.414 81.1454C330.638 80.8492 330.99 80.6518 331.171 80.3952C331.352 80.1386 330.915 80.1188 330.713 79.9708C330.51 79.8227 330.713 79.7339 330.755 79.6352C330.798 79.5365 331.267 79.5463 331.352 79.4279C331.426 79.3193 331.299 79.0725 331.075 78.9936C330.851 78.9146 330.35 78.9936 330.254 78.9146C330.169 78.8258 330.223 78.5692 330.414 78.273C330.606 77.9769 331.458 78.885 331.821 78.1743C332.172 77.4735 334.048 75.9831 334.09 75.9436C333.685 76.0226 333.28 76.1213 332.876 76.2298C323.681 78.7468 318.428 87.6796 321.145 96.1979C323.862 104.716 333.504 109.582 342.699 107.065C345.15 106.394 347.323 105.259 349.135 103.808C347.867 104.657 346.024 105.516 345.619 105.545Z" fill="url(#paint47_linear_17_1014)"/>
<path d="M353.599 85.0344L338.128 87.4231L320.537 93.4342C320.655 94.3522 320.846 95.28 321.134 96.198C321.305 96.7507 321.518 97.2739 321.741 97.797C328.987 90.4336 353.461 85.064 353.599 85.0344Z" fill="#073F82"/>
<path d="M336.338 87.117C323.627 90.5914 305.237 97.4415 306.708 102.061C307.666 105.062 316.18 104.637 325.524 103.028C325.044 102.584 324.597 102.12 324.171 101.617C314.283 103.216 308.764 102.742 308.391 101.597C307.869 99.9487 317.171 94.056 336.829 88.6864C356.487 83.3169 367.749 83.5834 368.271 85.2317C368.633 86.3767 364.286 89.5451 355.048 93.1775C354.984 93.8092 354.867 94.431 354.728 95.043C363.519 91.6969 370.924 87.7685 369.965 84.7678C368.494 80.1484 349.039 83.6426 336.328 87.117H336.338Z" fill="url(#paint48_linear_17_1014)"/>
<path d="M318.95 160.929C318.183 161.639 317.16 164.828 317.16 164.828C317.16 164.828 316.062 161.708 315.295 160.998C314.528 160.287 311.161 159.27 311.161 159.27C311.161 159.27 314.517 158.244 315.285 157.533C316.052 156.823 317.16 153.713 317.16 153.713C317.16 153.713 318.215 156.882 318.982 157.583C319.749 158.283 323.158 159.27 323.158 159.27C323.158 159.27 319.706 160.218 318.95 160.929Z" fill="white"/>
<path d="M59.5872 35.8398C58.82 36.5505 57.7972 39.7387 57.7972 39.7387C57.7972 39.7387 56.6997 36.6196 55.9326 35.9089C55.1655 35.1982 51.7986 34.1816 51.7986 34.1816C51.7986 34.1816 55.1548 33.155 55.9219 32.4444C56.6891 31.7337 57.7972 28.6245 57.7972 28.6245C57.7972 28.6245 58.852 31.7929 59.6191 32.4937C60.3863 33.1945 63.7958 34.1816 63.7958 34.1816C63.7958 34.1816 60.3437 35.1291 59.5872 35.8398Z" fill="white"/>
<path d="M373.646 50.4877C373.06 51.0305 372.272 53.4883 372.272 53.4883C372.272 53.4883 371.43 51.0898 370.834 50.5469C370.237 50.004 367.658 49.2144 367.658 49.2144C367.658 49.2144 370.237 48.4247 370.834 47.8818C371.43 47.339 372.272 44.9404 372.272 44.9404C372.272 44.9404 373.082 47.3784 373.668 47.9213C374.254 48.4642 376.885 49.2144 376.885 49.2144C376.885 49.2144 374.232 49.9448 373.646 50.4877Z" fill="white"/>
<path d="M203.197 84.2941C202.611 84.837 201.822 87.2948 201.822 87.2948C201.822 87.2948 200.981 84.8962 200.384 84.3534C199.787 83.8105 197.209 83.0208 197.209 83.0208C197.209 83.0208 199.787 82.2312 200.384 81.6883C200.981 81.1454 201.822 78.7469 201.822 78.7469C201.822 78.7469 202.632 81.1849 203.218 81.7278C203.804 82.2707 206.436 83.0208 206.436 83.0208C206.436 83.0208 203.783 83.7513 203.197 84.2941Z" fill="white"/>
<path d="M62.1491 96.4545C61.1796 97.3527 59.8797 101.41 59.8797 101.41C59.8797 101.41 58.4839 97.4514 57.5143 96.5434C56.5447 95.6353 52.2615 94.3521 52.2615 94.3521C52.2615 94.3521 56.5234 93.0492 57.493 92.151C58.4626 91.2528 59.869 87.3046 59.869 87.3046C59.869 87.3046 61.2009 91.3219 62.1811 92.2201C63.1613 93.1183 67.4872 94.362 67.4872 94.362C67.4872 94.362 63.1081 95.5662 62.1385 96.4644L62.1491 96.4545Z" fill="white"/>
<path d="M231.29 35.8398C230.523 36.5505 229.5 39.7387 229.5 39.7387C229.5 39.7387 228.402 36.6196 227.635 35.9089C226.868 35.1982 223.501 34.1816 223.501 34.1816C223.501 34.1816 226.857 33.155 227.625 32.4444C228.392 31.7337 229.5 28.6245 229.5 28.6245C229.5 28.6245 230.555 31.7929 231.322 32.4937C232.089 33.1945 235.498 34.1816 235.498 34.1816C235.498 34.1816 232.046 35.1291 231.29 35.8398Z" fill="url(#paint49_linear_17_1014)"/>
<path d="M107.165 213.005C106.398 213.716 105.375 216.904 105.375 216.904C105.375 216.904 104.278 213.785 103.511 213.075C102.744 212.364 99.3768 211.347 99.3768 211.347C99.3768 211.347 102.733 210.321 103.5 209.61C104.267 208.899 105.375 205.79 105.375 205.79C105.375 205.79 106.43 208.959 107.197 209.659C107.965 210.36 111.374 211.347 111.374 211.347C111.374 211.347 107.922 212.295 107.165 213.005Z" fill="url(#paint50_linear_17_1014)"/>
<path opacity="0.26" d="M0 37.8312C0 37.8312 13.9975 53.7898 99.4927 60.4421C184.988 67.0945 212.614 59.7743 267.641 36.5043C322.667 13.2344 391.953 -0.0702958 399.16 8.57685C406.355 17.224 366.135 15.8882 324.13 52.4628C288.167 83.7736 286.312 93.7037 213.601 132.097C157.421 161.765 60.2831 199.904 0 188.4V37.8312Z" fill="url(#paint51_linear_17_1014)"/>
<path d="M150.946 145.087H92.7709C88.3811 145.087 84.8224 148.383 84.8224 152.45V256.752C84.8224 260.818 88.3811 264.115 92.7709 264.115H172.745C177.135 264.115 180.694 260.818 180.694 256.752V170.641L153.109 145.087H150.946Z" fill="white"/>
<path d="M144.425 157.918H95.7648V162.034H144.425V157.918Z" fill="#C7E4F9"/>
<path d="M144.425 165.913H95.7648V170.029H144.425V165.913Z" fill="#C7E4F9"/>
<path d="M166.225 235.185H155.591C153.908 235.185 152.544 236.448 152.544 238.007V251.806C152.544 253.366 153.908 254.629 155.591 254.629H166.225C167.908 254.629 169.272 253.366 169.272 251.806V238.007C169.272 236.448 167.908 235.185 166.225 235.185Z" fill="#C7E4F9"/>
<path d="M144.425 208.208H95.7648V212.324H144.425V208.208Z" fill="#C7E4F9"/>
<path d="M169.283 190.56H95.7648V194.676H169.283V190.56Z" fill="#C7E4F9"/>
<path d="M169.283 199.058H95.7648V203.174H169.283V199.058Z" fill="#C7E4F9"/>
<path d="M153.098 163.742C153.098 167.522 156.401 170.602 160.492 170.602L180.705 170.631L153.119 145.077L153.098 163.732V163.742Z" fill="url(#paint52_linear_17_1014)"/>
<path d="M95.1682 182.071C96.1804 182.071 97.1926 182.071 98.2155 182.071C98.8228 182.14 99.4194 182.2 100.027 182.288C106.057 183.226 111.129 185.753 114.762 190.353C119.855 196.798 120.835 203.836 117.66 211.298C117.096 212.611 116.265 213.825 115.487 215.216C115.54 215.246 115.721 215.335 115.86 215.453C119.152 218.493 122.434 221.553 125.737 224.584C126.61 225.393 127.441 226.202 127.708 227.367V228.63C127.708 228.63 127.633 228.709 127.623 228.749C127.239 230.249 126.248 231.266 124.671 231.68C123.052 232.115 121.677 231.651 120.484 230.535C117.202 227.466 113.878 224.426 110.575 221.366C110.255 221.07 109.968 220.744 109.712 220.468C109.552 220.517 109.52 220.527 109.488 220.546C109.424 220.576 109.371 220.616 109.307 220.645C102.136 224.88 94.6355 225.393 86.9534 222.096C80.0278 219.125 75.979 213.943 74.4021 207.063C74.2103 206.224 74.1251 205.376 73.9866 204.527C73.9866 203.589 73.9866 202.651 73.9866 201.704C74.0185 201.615 74.0611 201.526 74.0718 201.427C74.2956 198.545 75.1692 195.831 76.6289 193.294C80.0598 187.352 85.4298 183.818 92.5045 182.446C93.3889 182.279 94.2839 182.19 95.1789 182.071H95.1682ZM111.161 203.145C111.331 195.811 104.459 189.731 96.7771 189.701C88.9139 189.672 82.244 195.86 82.212 203.056C82.1801 210.261 88.754 216.529 96.6812 216.549C104.555 216.559 111.31 210.37 111.161 203.145Z" fill="url(#paint53_linear_17_1014)"/>
<path d="M225.436 96.9974H202.155V96.7605C202.155 94.5594 200.238 92.7827 197.862 92.7827H178.875C176.499 92.7827 174.581 94.5594 174.581 96.7605V130.073C174.581 132.275 176.499 134.051 178.875 134.051H225.436C227.812 134.051 229.73 132.275 229.73 130.073V100.975C229.73 98.7741 227.812 96.9974 225.436 96.9974Z" fill="url(#paint54_linear_17_1014)"/>
<path d="M224.147 134.051H177.586C175.21 134.051 173.995 132.521 174.858 130.636L186.291 105.634C187.154 103.749 189.775 102.219 192.151 102.219H238.712C241.088 102.219 242.303 103.749 241.44 105.634L230.007 130.636C229.144 132.521 226.523 134.051 224.147 134.051Z" fill="url(#paint55_linear_17_1014)"/>
<defs>
<linearGradient id="paint0_linear_17_1014" x1="209.611" y1="330.682" x2="433.843" y2="293.615" gradientUnits="userSpaceOnUse">
<stop offset="0.01" stop-color="#C7E4F9"/>
<stop offset="0.99" stop-color="white" stop-opacity="0.1"/>
</linearGradient>
<linearGradient id="paint1_linear_17_1014" x1="178.69" y1="238.447" x2="185.646" y2="-9.12576" gradientUnits="userSpaceOnUse">
<stop offset="0.01" stop-color="#C7E4F9"/>
<stop offset="0.5" stop-color="#348BE2"/>
<stop offset="0.99" stop-color="#0F53B7"/>
</linearGradient>
<linearGradient id="paint2_linear_17_1014" x1="307.268" y1="276.402" x2="248.46" y2="340.392" gradientUnits="userSpaceOnUse">
<stop stop-color="#C7E4F9"/>
<stop offset="1" stop-color="#329FF9"/>
</linearGradient>
<linearGradient id="paint3_linear_17_1014" x1="240.793" y1="264.212" x2="355.237" y2="345.35" gradientUnits="userSpaceOnUse">
<stop stop-color="#C7E4F9"/>
<stop offset="1" stop-color="#329FF9"/>
</linearGradient>
<linearGradient id="paint4_linear_17_1014" x1="301.759" y1="331.272" x2="298.859" y2="273.022" gradientUnits="userSpaceOnUse">
<stop stop-color="#C7E4F9"/>
<stop offset="1" stop-color="#329FF9"/>
</linearGradient>
<linearGradient id="paint5_linear_17_1014" x1="313.639" y1="286.45" x2="295.333" y2="244.215" gradientUnits="userSpaceOnUse">
<stop stop-color="#C7E4F9"/>
<stop offset="1" stop-color="#329FF9"/>
</linearGradient>
<linearGradient id="paint6_linear_17_1014" x1="313.117" y1="304.681" x2="285.806" y2="210.509" gradientUnits="userSpaceOnUse">
<stop stop-color="#C7E4F9"/>
<stop offset="1" stop-color="#329FF9"/>
</linearGradient>
<linearGradient id="paint7_linear_17_1014" x1="352.827" y1="304.187" x2="263.976" y2="260.044" gradientUnits="userSpaceOnUse">
<stop stop-color="#C7E4F9"/>
<stop offset="1" stop-color="#329FF9"/>
</linearGradient>
<linearGradient id="paint8_linear_17_1014" x1="314.662" y1="274.724" x2="295.498" y2="235.939" gradientUnits="userSpaceOnUse">
<stop stop-color="#C7E4F9"/>
<stop offset="1" stop-color="#329FF9"/>
</linearGradient>
<linearGradient id="paint9_linear_17_1014" x1="244.117" y1="299.943" x2="257.254" y2="299.943" gradientUnits="userSpaceOnUse">
<stop stop-color="#FFE9DE"/>
<stop offset="0.44" stop-color="#FEDDCC"/>
<stop offset="1" stop-color="#FCCEB6"/>
</linearGradient>
<linearGradient id="paint10_linear_17_1014" x1="268.452" y1="277.606" x2="251.314" y2="238.832" gradientUnits="userSpaceOnUse">
<stop offset="0.01" stop-color="#102F66"/>
<stop offset="1" stop-color="#0060C9"/>
</linearGradient>
<linearGradient id="paint11_linear_17_1014" x1="247.686" y1="326.959" x2="236.847" y2="304.32" gradientUnits="userSpaceOnUse">
<stop stop-color="#0C1F3D"/>
<stop offset="0.54" stop-color="#102F66"/>
<stop offset="1" stop-color="#0060C9"/>
</linearGradient>
<linearGradient id="paint12_linear_17_1014" x1="282.762" y1="305.747" x2="295.697" y2="305.747" gradientUnits="userSpaceOnUse">
<stop stop-color="#FFE9DE"/>
<stop offset="0.44" stop-color="#FEDDCC"/>
<stop offset="1" stop-color="#FCCEB6"/>
</linearGradient>
<linearGradient id="paint13_linear_17_1014" x1="308.109" y1="270.736" x2="286.578" y2="245.729" gradientUnits="userSpaceOnUse">
<stop offset="0.01" stop-color="#102F66"/>
<stop offset="1" stop-color="#0060C9"/>
</linearGradient>
<linearGradient id="paint14_linear_17_1014" x1="310.88" y1="228.806" x2="355.61" y2="256.089" gradientUnits="userSpaceOnUse">
<stop stop-color="#0C1F3D"/>
<stop offset="0.54" stop-color="#102F66"/>
<stop offset="1" stop-color="#0060C9"/>
</linearGradient>
<linearGradient id="paint15_linear_17_1014" x1="306.98" y1="156.357" x2="312.549" y2="173.892" gradientUnits="userSpaceOnUse">
<stop stop-color="#FFE4D9"/>
<stop offset="0.44" stop-color="#F9D8C7"/>
<stop offset="1" stop-color="#F7C9B1"/>
</linearGradient>
<linearGradient id="paint16_linear_17_1014" x1="289.176" y1="329.476" x2="271.669" y2="311.11" gradientUnits="userSpaceOnUse">
<stop stop-color="#0C1F3D"/>
<stop offset="0.54" stop-color="#102F66"/>
<stop offset="1" stop-color="#0060C9"/>
</linearGradient>
<linearGradient id="paint17_linear_17_1014" x1="295.718" y1="192.473" x2="346.786" y2="284.264" gradientUnits="userSpaceOnUse">
<stop stop-color="#C7E4F9"/>
<stop offset="1" stop-color="#329FF9"/>
</linearGradient>
<linearGradient id="paint18_linear_17_1014" x1="312.403" y1="302.618" x2="283.482" y2="230.567" gradientUnits="userSpaceOnUse">
<stop stop-color="#C7E4F9"/>
<stop offset="1" stop-color="#329FF9"/>
</linearGradient>
<linearGradient id="paint19_linear_17_1014" x1="316.196" y1="284.15" x2="272.255" y2="233.367" gradientUnits="userSpaceOnUse">
<stop stop-color="#C7E4F9"/>
<stop offset="1" stop-color="#329FF9"/>
</linearGradient>
<linearGradient id="paint20_linear_17_1014" x1="261.857" y1="270.519" x2="234.852" y2="249.814" gradientUnits="userSpaceOnUse">
<stop offset="0.01" stop-color="#102F66"/>
<stop offset="1" stop-color="#0060C9"/>
</linearGradient>
<linearGradient id="paint21_linear_17_1014" x1="241.933" y1="195.039" x2="315.714" y2="193.889" gradientUnits="userSpaceOnUse">
<stop offset="0.01" stop-color="#C7E4F9"/>
<stop offset="0.32" stop-color="#6DBAF9"/>
<stop offset="0.51" stop-color="#329FF9"/>
<stop offset="1" stop-color="#348BE2"/>
</linearGradient>
<linearGradient id="paint22_linear_17_1014" x1="324.763" y1="187.153" x2="311.119" y2="227.31" gradientUnits="userSpaceOnUse">
<stop offset="0.01" stop-color="#C7E4F9"/>
<stop offset="0.32" stop-color="#6DBAF9"/>
<stop offset="0.51" stop-color="#329FF9"/>
<stop offset="1" stop-color="#348BE2"/>
</linearGradient>
<linearGradient id="paint23_linear_17_1014" x1="303.634" y1="216.952" x2="366.725" y2="228.775" gradientUnits="userSpaceOnUse">
<stop offset="0.01" stop-color="#C7E4F9"/>
<stop offset="0.32" stop-color="#6DBAF9"/>
<stop offset="0.51" stop-color="#329FF9"/>
<stop offset="1" stop-color="#348BE2"/>
</linearGradient>
<linearGradient id="paint24_linear_17_1014" x1="294.45" y1="300.249" x2="280.638" y2="234.647" gradientUnits="userSpaceOnUse">
<stop stop-color="#0C1F3D"/>
<stop offset="0.54" stop-color="#102F66"/>
<stop offset="1" stop-color="#0060C9"/>
</linearGradient>
<linearGradient id="paint25_linear_17_1014" x1="334.022" y1="273.164" x2="300.62" y2="240.675" gradientUnits="userSpaceOnUse">
<stop stop-color="#0C1F3D"/>
<stop offset="0.54" stop-color="#102F66"/>
<stop offset="1" stop-color="#0060C9"/>
</linearGradient>
<linearGradient id="paint26_linear_17_1014" x1="292.66" y1="182.691" x2="349.581" y2="188.434" gradientUnits="userSpaceOnUse">
<stop offset="0.01" stop-color="#C7E4F9"/>
<stop offset="0.32" stop-color="#6DBAF9"/>
<stop offset="0.51" stop-color="#329FF9"/>
<stop offset="1" stop-color="#348BE2"/>
</linearGradient>
<linearGradient id="paint27_linear_17_1014" x1="291.563" y1="221.64" x2="298.307" y2="221.64" gradientUnits="userSpaceOnUse">
<stop offset="0.01" stop-color="#C7E4F9"/>
<stop offset="0.32" stop-color="#6DBAF9"/>
<stop offset="0.51" stop-color="#329FF9"/>
<stop offset="1" stop-color="#348BE2"/>
</linearGradient>
<linearGradient id="paint28_linear_17_1014" x1="331.859" y1="174.972" x2="277.771" y2="184.898" gradientUnits="userSpaceOnUse">
<stop offset="0.01" stop-color="#C7E4F9"/>
<stop offset="0.32" stop-color="#6DBAF9"/>
<stop offset="0.51" stop-color="#329FF9"/>
<stop offset="1" stop-color="#348BE2"/>
</linearGradient>
<linearGradient id="paint29_linear_17_1014" x1="308.035" y1="149.24" x2="307.422" y2="160.597" gradientUnits="userSpaceOnUse">
<stop stop-color="#FFE9DE"/>
<stop offset="0.44" stop-color="#FEDDCC"/>
<stop offset="1" stop-color="#FCCEB6"/>
</linearGradient>
<linearGradient id="paint30_linear_17_1014" x1="282.708" y1="155.271" x2="295.655" y2="173.199" gradientUnits="userSpaceOnUse">
<stop offset="0.01" stop-color="#FCD765"/>
<stop offset="1" stop-color="#F4B027"/>
</linearGradient>
<linearGradient id="paint31_linear_17_1014" x1="302.931" y1="161.835" x2="312.106" y2="189.298" gradientUnits="userSpaceOnUse">
<stop stop-color="#FFE4D9"/>
<stop offset="0.44" stop-color="#F9D8C7"/>
<stop offset="1" stop-color="#F7C9B1"/>
</linearGradient>
<linearGradient id="paint32_linear_17_1014" x1="303.858" y1="151.451" x2="305.122" y2="165.782" gradientUnits="userSpaceOnUse">
<stop stop-color="#FFE9DE"/>
<stop offset="0.44" stop-color="#FEDDCC"/>
<stop offset="1" stop-color="#FCCEB6"/>
</linearGradient>
<linearGradient id="paint33_linear_17_1014" x1="281.026" y1="164.443" x2="272.782" y2="157.162" gradientUnits="userSpaceOnUse">
<stop offset="0.01" stop-color="#102F66"/>
<stop offset="1" stop-color="#0060C9"/>
</linearGradient>
<linearGradient id="paint34_linear_17_1014" x1="296.074" y1="162.953" x2="290.205" y2="156.09" gradientUnits="userSpaceOnUse">
<stop offset="0.01" stop-color="#102F66"/>
<stop offset="1" stop-color="#0060C9"/>
</linearGradient>
<linearGradient id="paint35_linear_17_1014" x1="282.719" y1="150.879" x2="283.158" y2="158.049" gradientUnits="userSpaceOnUse">
<stop offset="0.01" stop-color="#F9C138"/>
<stop offset="0.46" stop-color="#F4B027"/>
<stop offset="0.99" stop-color="#D39313"/>
</linearGradient>
<linearGradient id="paint36_linear_17_1014" x1="272.373" y1="168.981" x2="278.031" y2="177.291" gradientUnits="userSpaceOnUse">
<stop stop-color="#FFE4D9"/>
<stop offset="0.44" stop-color="#F9D8C7"/>
<stop offset="1" stop-color="#F7C9B1"/>
</linearGradient>
<linearGradient id="paint37_linear_17_1014" x1="275.421" y1="159.209" x2="276.143" y2="171.002" gradientUnits="userSpaceOnUse">
<stop stop-color="#FFE9DE"/>
<stop offset="0.44" stop-color="#FEDDCC"/>
<stop offset="1" stop-color="#FCCEB6"/>
</linearGradient>
<linearGradient id="paint38_linear_17_1014" x1="283.284" y1="151.412" x2="284.09" y2="158.908" gradientUnits="userSpaceOnUse">
<stop stop-color="#FFE4D9"/>
<stop offset="0.44" stop-color="#F9D8C7"/>
<stop offset="1" stop-color="#F7C9B1"/>
</linearGradient>
<linearGradient id="paint39_linear_17_1014" x1="196.625" y1="166.377" x2="259.126" y2="166.377" gradientUnits="userSpaceOnUse">
<stop offset="0.01" stop-color="#C7E4F9"/>
<stop offset="0.99" stop-color="white" stop-opacity="0.1"/>
</linearGradient>
<linearGradient id="paint40_linear_17_1014" x1="45.4531" y1="282.277" x2="84.8224" y2="282.277" gradientUnits="userSpaceOnUse">
<stop offset="0.01" stop-color="#C7E4F9"/>
<stop offset="0.99" stop-color="white" stop-opacity="0.1"/>
</linearGradient>
<linearGradient id="paint41_linear_17_1014" x1="313.857" y1="327.829" x2="304.264" y2="256.247" gradientUnits="userSpaceOnUse">
<stop stop-color="white"/>
<stop offset="1" stop-color="#329FF9"/>
</linearGradient>
<linearGradient id="paint42_linear_17_1014" x1="375.459" y1="248.697" x2="359.098" y2="126.619" gradientUnits="userSpaceOnUse">
<stop stop-color="white"/>
<stop offset="1" stop-color="#329FF9"/>
</linearGradient>
<linearGradient id="paint43_linear_17_1014" x1="151.363" y1="97.9583" x2="107.848" y2="30.8869" gradientUnits="userSpaceOnUse">
<stop offset="0.01" stop-color="#FC5E92"/>
<stop offset="0.99" stop-color="#9B3CBA"/>
</linearGradient>
<linearGradient id="paint44_linear_17_1014" x1="147.798" y1="75.9451" x2="114.031" y2="52.1197" gradientUnits="userSpaceOnUse">
<stop offset="0.01" stop-color="#FC5E92"/>
<stop offset="0.99" stop-color="#9B3CBA"/>
</linearGradient>
<linearGradient id="paint45_linear_17_1014" x1="80.5776" y1="62.5015" x2="164.121" y2="62.5015" gradientUnits="userSpaceOnUse">
<stop offset="0.01" stop-color="#FCD765"/>
<stop offset="1" stop-color="#F4B027"/>
</linearGradient>
<linearGradient id="paint46_linear_17_1014" x1="371.953" y1="108.413" x2="316.148" y2="76.4638" gradientUnits="userSpaceOnUse">
<stop offset="0.01" stop-color="#29D6A9"/>
<stop offset="0.99" stop-color="#138760"/>
</linearGradient>
<linearGradient id="paint47_linear_17_1014" x1="361.081" y1="94.393" x2="328.444" y2="90.6188" gradientUnits="userSpaceOnUse">
<stop offset="0.01" stop-color="#29D6A9"/>
<stop offset="0.99" stop-color="#138760"/>
</linearGradient>
<linearGradient id="paint48_linear_17_1014" x1="306.633" y1="93.4144" x2="370.061" y2="93.4144" gradientUnits="userSpaceOnUse">
<stop offset="0.01" stop-color="#FCD765"/>
<stop offset="1" stop-color="#F4B027"/>
</linearGradient>
<linearGradient id="paint49_linear_17_1014" x1="223.501" y1="34.1816" x2="235.498" y2="34.1816" gradientUnits="userSpaceOnUse">
<stop offset="0.01" stop-color="#FCD765"/>
<stop offset="1" stop-color="#F4B027"/>
</linearGradient>
<linearGradient id="paint50_linear_17_1014" x1="99.3768" y1="211.357" x2="111.374" y2="211.357" gradientUnits="userSpaceOnUse">
<stop offset="0.01" stop-color="#FCD765"/>
<stop offset="1" stop-color="#F4B027"/>
</linearGradient>
<linearGradient id="paint51_linear_17_1014" x1="0" y1="98.2119" x2="400.004" y2="98.2119" gradientUnits="userSpaceOnUse">
<stop offset="0.01" stop-color="#C7E4F9"/>
<stop offset="0.99" stop-color="white" stop-opacity="0.1"/>
</linearGradient>
<linearGradient id="paint52_linear_17_1014" x1="174.056" y1="147.544" x2="150.791" y2="186.652" gradientUnits="userSpaceOnUse">
<stop stop-color="#C7E4F9"/>
<stop offset="1" stop-color="#329FF9"/>
</linearGradient>
<linearGradient id="paint53_linear_17_1014" x1="73.9759" y1="206.955" x2="127.697" y2="206.955" gradientUnits="userSpaceOnUse">
<stop offset="0.01" stop-color="#102F66"/>
<stop offset="1" stop-color="#0060C9"/>
</linearGradient>
<linearGradient id="paint54_linear_17_1014" x1="201.484" y1="127.586" x2="205.042" y2="40.5142" gradientUnits="userSpaceOnUse">
<stop offset="0.01" stop-color="#F9C138"/>
<stop offset="0.46" stop-color="#F4B027"/>
<stop offset="0.99" stop-color="#D39313"/>
</linearGradient>
<linearGradient id="paint55_linear_17_1014" x1="351.546" y1="129.077" x2="354.418" y2="59.0062" gradientUnits="userSpaceOnUse">
<stop offset="0.01" stop-color="#FCD765"/>
<stop offset="1" stop-color="#F4B027"/>
</linearGradient>
</defs>
</svg>
