<svg width="31" height="31" viewBox="0 0 31 31" fill="none" xmlns="http://www.w3.org/2000/svg">
<mask id="mask0_34_125" style="mask-type:alpha" maskUnits="userSpaceOnUse" x="0" y="0" width="31" height="31">
<rect x="0.5" y="0.5" width="30" height="30" fill="#D9D9D9"/>
</mask>
<g mask="url(#mask0_34_125)">
<path d="M15.5 29.25V26.75H24.25V25.5H19.25V15.5H24.25V14.25C24.25 11.8333 23.3958 9.77083 21.6875 8.0625C19.9792 6.35417 17.9167 5.5 15.5 5.5C13.0833 5.5 11.0208 6.35417 9.3125 8.0625C7.60417 9.77083 6.75 11.8333 6.75 14.25V15.5H11.75V25.5H6.75C6.0625 25.5 5.47396 25.2552 4.98438 24.7656C4.49479 24.276 4.25 23.6875 4.25 23V14.25C4.25 12.7083 4.54688 11.2552 5.14063 9.89063C5.73438 8.52604 6.54167 7.33333 7.5625 6.3125C8.58333 5.29167 9.77604 4.48438 11.1406 3.89063C12.5052 3.29688 13.9583 3 15.5 3C17.0417 3 18.4948 3.29688 19.8594 3.89063C21.224 4.48438 22.4167 5.29167 23.4375 6.3125C24.4583 7.33333 25.2656 8.52604 25.8594 9.89063C26.4531 11.2552 26.75 12.7083 26.75 14.25V26.75C26.75 27.4375 26.5052 28.026 26.0156 28.5156C25.526 29.0052 24.9375 29.25 24.25 29.25H15.5ZM6.75 23H9.25V18H6.75V23ZM21.75 23H24.25V18H21.75V23Z" fill="#1C1B1F"/>
</g>
</svg>
