<svg width="37" height="41" viewBox="0 0 37 41" fill="none" xmlns="http://www.w3.org/2000/svg">
<mask id="mask0_32_911" style="mask-type:alpha" maskUnits="userSpaceOnUse" x="0" y="0" width="37" height="41">
<rect width="36.08" height="41" fill="#D9D9D9"/>
</mask>
<g mask="url(#mask0_32_911)">
<path d="M6.76501 35.8751C6.13862 35.8751 5.60619 35.626 5.16772 35.1277C4.72925 34.6294 4.51001 34.0244 4.51001 33.3126V30.0668L10.5233 24.0022V35.8751H6.76501ZM12.0267 35.8751V29.0418H24.0533V35.8751H12.0267ZM25.5567 35.8751V21.8668L19.1299 15.3751L23.6775 10.8053L30.8183 18.023C31.0689 18.2793 31.2568 18.5711 31.3821 18.8985C31.5074 19.226 31.57 19.5748 31.57 19.9449V33.3126C31.57 34.0244 31.3508 34.6294 30.9123 35.1277C30.4738 35.626 29.9414 35.8751 29.315 35.8751H25.5567ZM4.51001 27.7605V19.9449C4.51001 19.5748 4.57265 19.2188 4.69793 18.8772C4.8232 18.5355 5.01112 18.2508 5.26168 18.023L16.5367 6.6626C16.7371 6.43482 16.9689 6.2711 17.232 6.17145C17.4951 6.0718 17.7644 6.02197 18.04 6.02197C18.3156 6.02197 18.585 6.0718 18.8481 6.17145C19.1111 6.2711 19.3429 6.43482 19.5433 6.6626L22.55 9.69489L4.51001 27.7605Z" fill="#58DA6D"/>
</g>
</svg>
