<svg width="37" height="42" viewBox="0 0 37 42" fill="none" xmlns="http://www.w3.org/2000/svg">
<mask id="mask0_2_39" style="mask-type:alpha" maskUnits="userSpaceOnUse" x="0" y="0" width="37" height="42">
<rect y="0.5" width="36.08" height="41" fill="#D9D9D9"/>
</mask>
<g mask="url(#mask0_2_39)">
<path d="M6.76501 36.375C6.13862 36.375 5.60619 36.1258 5.16772 35.6276C4.72925 35.1293 4.51001 34.5243 4.51001 33.8125V30.5666L10.5233 24.5021V36.375H6.76501ZM12.0267 36.375V29.5416H24.0533V36.375H12.0267ZM25.5567 36.375V22.3666L19.1299 15.875L23.6775 11.3052L30.8183 18.5229C31.0689 18.7791 31.2568 19.071 31.3821 19.3984C31.5074 19.7258 31.57 20.0746 31.57 20.4448V33.8125C31.57 34.5243 31.3508 35.1293 30.9123 35.6276C30.4738 36.1258 29.9414 36.375 29.315 36.375H25.5567ZM4.51001 28.2604V20.4448C4.51001 20.0746 4.57265 19.7187 4.69793 19.3771C4.8232 19.0354 5.01112 18.7507 5.26168 18.5229L16.5367 7.16248C16.7371 6.9347 16.9689 6.77098 17.232 6.67133C17.4951 6.57168 17.7644 6.52185 18.04 6.52185C18.3156 6.52185 18.585 6.57168 18.8481 6.67133C19.1111 6.77098 19.3429 6.9347 19.5433 7.16248L22.55 10.1948L4.51001 28.2604Z" fill="#58DA6D"/>
</g>
</svg>
