<svg width="32" height="25" viewBox="0 0 32 25" fill="none" xmlns="http://www.w3.org/2000/svg">
<path d="M3.2 25C2.32 25 1.56667 24.694 0.94 24.082C0.313333 23.4701 0 22.7344 0 21.875V3.125C0 2.26562 0.313333 1.52995 0.94 0.917969C1.56667 0.30599 2.32 0 3.2 0H28.8C29.68 0 30.4333 0.30599 31.06 0.917969C31.6867 1.52995 32 2.26562 32 3.125V21.875C32 22.7344 31.6867 23.4701 31.06 24.082C30.4333 24.694 29.68 25 28.8 25H3.2ZM16 14.0625L3.2 6.25V21.875H28.8V6.25L16 14.0625ZM16 10.9375L28.8 3.125H3.2L16 10.9375ZM3.2 6.25V3.125V21.875V6.25Z" fill="#003366"/>
</svg>
