<svg width="31" height="31" viewBox="0 0 31 31" fill="none" xmlns="http://www.w3.org/2000/svg">
<mask id="mask0_34_118" style="mask-type:alpha" maskUnits="userSpaceOnUse" x="0" y="0" width="31" height="31">
<rect x="0.5" y="0.5" width="30" height="30" fill="#D9D9D9"/>
</mask>
<g mask="url(#mask0_34_118)">
<path d="M15.5 23C14.3333 23 13.2188 23.1823 12.1563 23.5469C11.0938 23.9115 10.125 24.4583 9.25 25.1875V25.5H21.75V25.1875C20.875 24.4583 19.9062 23.9115 18.8438 23.5469C17.7812 23.1823 16.6667 23 15.5 23ZM15.5 20.5C16.9375 20.5 18.2812 20.7188 19.5312 21.1562C20.7812 21.5938 21.9375 22.2083 23 23V5.5H8V23C9.0625 22.2083 10.2188 21.5938 11.4688 21.1562C12.7188 20.7188 14.0625 20.5 15.5 20.5ZM15.5 15.5C14.9792 15.5 14.5365 15.3177 14.1719 14.9531C13.8073 14.5885 13.625 14.1458 13.625 13.625C13.625 13.1042 13.8073 12.6615 14.1719 12.2969C14.5365 11.9323 14.9792 11.75 15.5 11.75C16.0208 11.75 16.4635 11.9323 16.8281 12.2969C17.1927 12.6615 17.375 13.1042 17.375 13.625C17.375 14.1458 17.1927 14.5885 16.8281 14.9531C16.4635 15.3177 16.0208 15.5 15.5 15.5ZM8 28C7.3125 28 6.72396 27.7552 6.23438 27.2656C5.74479 26.776 5.5 26.1875 5.5 25.5V5.5C5.5 4.8125 5.74479 4.22396 6.23438 3.73438C6.72396 3.24479 7.3125 3 8 3H23C23.6875 3 24.276 3.24479 24.7656 3.73438C25.2552 4.22396 25.5 4.8125 25.5 5.5V25.5C25.5 26.1875 25.2552 26.776 24.7656 27.2656C24.276 27.7552 23.6875 28 23 28H8ZM15.5 18C16.7083 18 17.7396 17.5729 18.5938 16.7188C19.4479 15.8646 19.875 14.8333 19.875 13.625C19.875 12.4167 19.4479 11.3854 18.5938 10.5312C17.7396 9.67708 16.7083 9.25 15.5 9.25C14.2917 9.25 13.2604 9.67708 12.4062 10.5312C11.5521 11.3854 11.125 12.4167 11.125 13.625C11.125 14.8333 11.5521 15.8646 12.4062 16.7188C13.2604 17.5729 14.2917 18 15.5 18Z" fill="#1C1B1F"/>
</g>
</svg>
