<svg width="18" height="18" viewBox="0 0 18 18" fill="none" xmlns="http://www.w3.org/2000/svg">
<path d="M17.4452 5.51763C17.4357 4.80384 17.3019 4.09714 17.0497 3.42915C16.831 2.86571 16.497 2.354 16.069 1.92672C15.641 1.49944 15.1285 1.16599 14.5641 0.947666C13.9036 0.700137 13.2058 0.566293 12.5004 0.551835C11.5923 0.51131 11.3044 0.5 8.99906 0.5C6.69375 0.5 6.39827 0.5 5.49672 0.551835C4.79169 0.5664 4.09423 0.700242 3.43403 0.947666C2.86956 1.16583 2.35692 1.49923 1.92891 1.92653C1.5009 2.35383 1.16694 2.86562 0.948412 3.42915C0.699974 4.08805 0.566198 4.7845 0.552865 5.48841C0.512272 6.396 0.5 6.68345 0.5 8.98492C0.5 11.2864 0.5 11.5804 0.552865 12.4814C0.567026 13.1864 0.700133 13.8819 0.948412 14.5426C1.16731 15.1059 1.50151 15.6175 1.92967 16.0446C2.35782 16.4718 2.87051 16.805 3.43497 17.0231C4.09337 17.2806 4.79095 17.424 5.49767 17.4472C6.40676 17.4877 6.69469 17.5 9 17.5C11.3053 17.5 11.6008 17.5 12.5023 17.4472C13.2077 17.4334 13.9055 17.2998 14.566 17.0523C15.1302 16.8338 15.6426 16.5002 16.0706 16.073C16.4986 15.6457 16.8327 15.1341 17.0516 14.5709C17.2999 13.9111 17.433 13.2156 17.4471 12.5097C17.4877 11.6031 17.5 11.3156 17.5 9.0132C17.4981 6.71172 17.4981 6.41956 17.4452 5.51763ZM8.99339 13.3372C6.58235 13.3372 4.62916 11.3872 4.62916 8.98021C4.62916 6.57318 6.58235 4.62324 8.99339 4.62324C10.1509 4.62324 11.2609 5.08228 12.0794 5.89937C12.8978 6.71646 13.3576 7.82467 13.3576 8.98021C13.3576 10.1357 12.8978 11.244 12.0794 12.0611C11.2609 12.8781 10.1509 13.3372 8.99339 13.3372ZM13.5313 5.47805C13.3976 5.47817 13.2653 5.45198 13.1417 5.40096C13.0182 5.34995 12.906 5.27512 12.8115 5.18075C12.7169 5.08639 12.642 4.97434 12.5909 4.85102C12.5398 4.7277 12.5135 4.59553 12.5137 4.46208C12.5137 4.32872 12.54 4.19667 12.5911 4.07347C12.6422 3.95026 12.7171 3.83831 12.8116 3.74402C12.906 3.64972 13.0182 3.57492 13.1416 3.52389C13.265 3.47285 13.3973 3.44659 13.5308 3.44659C13.6644 3.44659 13.7967 3.47285 13.9201 3.52389C14.0435 3.57492 14.1557 3.64972 14.2501 3.74402C14.3446 3.83831 14.4195 3.95026 14.4706 4.07347C14.5217 4.19667 14.548 4.32872 14.548 4.46208C14.548 5.02378 14.093 5.47805 13.5313 5.47805Z" fill="#102F66"/>
</svg>
