<svg width="36" height="34" viewBox="0 0 36 34" fill="none" xmlns="http://www.w3.org/2000/svg">
<path d="M25.5 18.2439L18.5833 11.5268C17.7222 10.6976 16.9931 9.77845 16.3958 8.76951C15.7986 7.76057 15.5 6.66179 15.5 5.47317C15.5 3.95285 16.0347 2.66057 17.1042 1.59634C18.1736 0.532114 19.4722 0 21 0C21.8889 0 22.7222 0.186585 23.5 0.559756C24.2778 0.932927 24.9444 1.4374 25.5 2.07317C26.0556 1.4374 26.7222 0.932927 27.5 0.559756C28.2778 0.186585 29.1111 0 30 0C31.5278 0 32.8264 0.532114 33.8958 1.59634C34.9653 2.66057 35.5 3.95285 35.5 5.47317C35.5 6.66179 35.2083 7.76057 34.625 8.76951C34.0417 9.77845 33.3194 10.6976 32.4583 11.5268L25.5 18.2439ZM25.5 13.6L30.0417 9.16341C30.5694 8.63821 31.0556 8.07846 31.5 7.48415C31.9444 6.88984 32.1667 6.21951 32.1667 5.47317C32.1667 4.86504 31.9583 4.35366 31.5417 3.93902C31.125 3.52439 30.6111 3.31707 30 3.31707C29.6111 3.31707 29.2431 3.39309 28.8958 3.54512C28.5486 3.69715 28.25 3.9252 28 4.22927L25.5 7.21463L23 4.22927C22.75 3.9252 22.4514 3.69715 22.1042 3.54512C21.7569 3.39309 21.3889 3.31707 21 3.31707C20.3889 3.31707 19.875 3.52439 19.4583 3.93902C19.0417 4.35366 18.8333 4.86504 18.8333 5.47317C18.8333 6.21951 19.0556 6.88984 19.5 7.48415C19.9444 8.07846 20.4306 8.63821 20.9583 9.16341L25.5 13.6ZM10.5 27.3659L22.0833 30.5171L32 27.4488C31.8611 27.2 31.6597 26.9858 31.3958 26.8061C31.1319 26.6264 30.8333 26.5366 30.5 26.5366H22.0833C21.3333 26.5366 20.7361 26.5089 20.2917 26.4537C19.8472 26.3984 19.3889 26.2878 18.9167 26.122L15.0417 24.8366L15.9583 21.6024L19.3333 22.722C19.8056 22.8602 20.3611 22.9707 21 23.0537C21.6389 23.1366 22.5833 23.1919 23.8333 23.2195C23.8333 22.9154 23.7431 22.6252 23.5625 22.3488C23.3819 22.0724 23.1667 21.8927 22.9167 21.8098L13.1667 18.2439H10.5V27.3659ZM0.5 33.1707V14.9268H13.1667C13.3611 14.9268 13.5556 14.9476 13.75 14.989C13.9444 15.0305 14.125 15.0789 14.2917 15.1341L24.0833 18.7415C25 19.0732 25.7431 19.6537 26.3125 20.4829C26.8819 21.3122 27.1667 22.2244 27.1667 23.2195H30.5C31.8889 23.2195 33.0694 23.6756 34.0417 24.5878C35.0139 25.5 35.5 26.7024 35.5 28.1951V29.8537L22.1667 34L10.5 30.7659V33.1707H0.5ZM3.83333 29.8537H7.16667V18.2439H3.83333V29.8537Z" fill="#102F66"/>
</svg>
